<svg data-v-423bf9ae="" xmlns="http://www.w3.org/2000/svg" viewBox="0 0 327.6565725508909 60" class="font"><!----><!----><!----><g id="c7af7801-43cf-4dbb-85b0-3fec8838f561" fill="white" transform="matrix(4.222378730773926,0,0,4.222378730773926,-5.320204257965088,-5.911331653594971)"><path d="M5.11 4.62L5.11 4.62Q6.19 4.62 7.08 5.13L7.08 5.13L7.08 5.13Q7.97 5.64 8.47 6.53L8.47 6.53L8.47 6.53Q8.97 7.42 8.97 8.51L8.97 8.51L8.97 8.51Q8.97 9.60 8.51 10.49L8.51 10.49L8.51 10.49Q8.04 11.38 7.22 11.89L7.22 11.89L7.22 11.89Q6.40 12.39 5.39 12.39L5.39 12.39L5.39 12.39Q4.58 12.39 3.88 12.05L3.88 12.05L3.88 12.05Q3.18 11.72 2.69 11.12L2.69 11.12L2.69 14.90L2.69 14.90Q2.69 15.22 2.49 15.41L2.49 15.41L2.49 15.41Q2.30 15.61 1.97 15.61L1.97 15.61L1.97 15.61Q1.67 15.61 1.46 15.41L1.46 15.41L1.46 15.41Q1.26 15.22 1.26 14.90L1.26 14.90L1.26 8.51L1.26 8.51Q1.26 7.42 1.77 6.53L1.77 6.53L1.77 6.53Q2.28 5.64 3.16 5.13L3.16 5.13L3.16 5.13Q4.03 4.62 5.11 4.62L5.11 4.62ZM5.11 11.13L5.11 11.13Q5.81 11.13 6.38 10.79L6.38 10.79L6.38 10.79Q6.94 10.44 7.27 9.85L7.27 9.85L7.27 9.85Q7.60 9.25 7.60 8.51L7.60 8.51L7.60 8.51Q7.60 7.77 7.27 7.17L7.27 7.17L7.27 7.17Q6.94 6.57 6.38 6.22L6.38 6.22L6.38 6.22Q5.81 5.88 5.11 5.88L5.11 5.88L5.11 5.88Q4.41 5.88 3.84 6.22L3.84 6.22L3.84 6.22Q3.28 6.57 2.95 7.17L2.95 7.17L2.95 7.17Q2.63 7.77 2.63 8.51L2.63 8.51L2.63 8.51Q2.63 9.25 2.95 9.85L2.95 9.85L2.95 9.85Q3.28 10.44 3.84 10.79L3.84 10.79L3.84 10.79Q4.41 11.13 5.11 11.13L5.11 11.13ZM10.82 2.10L10.82 2.10Q10.82 1.79 11.02 1.60L11.02 1.60L11.02 1.60Q11.21 1.40 11.52 1.40L11.52 1.40L11.52 1.40Q11.83 1.40 12.03 1.60L12.03 1.60L12.03 1.60Q12.22 1.79 12.22 2.10L12.22 2.10L12.22 9.74L12.22 9.74Q12.22 10.26 12.42 10.60L12.42 10.60L12.42 10.60Q12.61 10.93 12.92 10.93L12.92 10.93L13.27 10.93L13.27 10.93Q13.55 10.93 13.73 11.13L13.73 11.13L13.73 11.13Q13.90 11.33 13.90 11.63L13.90 11.63L13.90 11.63Q13.90 11.94 13.64 12.14L13.64 12.14L13.64 12.14Q13.37 12.33 12.95 12.33L12.95 12.33L12.92 12.33L12.92 12.33Q12.32 12.33 11.84 12.00L11.84 12.00L11.84 12.00Q11.35 11.68 11.09 11.08L11.09 11.08L11.09 11.08Q10.82 10.49 10.82 9.74L10.82 9.74L10.82 2.10ZM18.77 4.62L18.77 4.62Q19.85 4.62 20.73 5.13L20.73 5.13L20.73 5.13Q21.60 5.64 22.11 6.53L22.11 6.53L22.11 6.53Q22.62 7.42 22.62 8.51L22.62 8.51L22.62 11.63L22.62 11.63Q22.62 11.94 22.42 12.14L22.42 12.14L22.42 12.14Q22.22 12.35 21.91 12.35L21.91 12.35L21.91 12.35Q21.60 12.35 21.40 12.14L21.40 12.14L21.40 12.14Q21.20 11.94 21.20 11.63L21.20 11.63L21.20 11.12L21.20 11.12Q20.71 11.72 20.01 12.05L20.01 12.05L20.01 12.05Q19.31 12.39 18.49 12.39L18.49 12.39L18.49 12.39Q17.49 12.39 16.67 11.89L16.67 11.89L16.67 11.89Q15.85 11.38 15.38 10.49L15.38 10.49L15.38 10.49Q14.91 9.60 14.91 8.51L14.91 8.51L14.91 8.51Q14.91 7.42 15.41 6.53L15.41 6.53L15.41 6.53Q15.92 5.64 16.81 5.13L16.81 5.13L16.81 5.13Q17.70 4.62 18.77 4.62L18.77 4.62ZM18.77 11.13L18.77 11.13Q19.47 11.13 20.04 10.79L20.04 10.79L20.04 10.79Q20.61 10.44 20.93 9.85L20.93 9.85L20.93 9.85Q21.25 9.25 21.25 8.51L21.25 8.51L21.25 8.51Q21.25 7.77 20.93 7.17L20.93 7.17L20.93 7.17Q20.61 6.57 20.04 6.22L20.04 6.22L20.04 6.22Q19.47 5.88 18.77 5.88L18.77 5.88L18.77 5.88Q18.07 5.88 17.51 6.22L17.51 6.22L17.51 6.22Q16.94 6.57 16.61 7.17L16.61 7.17L16.61 7.17Q16.28 7.77 16.28 8.51L16.28 8.51L16.28 8.51Q16.28 9.25 16.61 9.85L16.61 9.85L16.61 9.85Q16.94 10.44 17.51 10.79L17.51 10.79L17.51 10.79Q18.07 11.13 18.77 11.13L18.77 11.13ZM28.60 4.62L28.60 4.62Q29.68 4.62 30.57 5.13L30.57 5.13L30.57 5.13Q31.46 5.64 31.96 6.53L31.96 6.53L31.96 6.53Q32.47 7.42 32.47 8.51L32.47 8.51L32.47 8.51Q32.47 9.60 32.00 10.49L32.00 10.49L32.00 10.49Q31.53 11.38 30.71 11.89L30.71 11.89L30.71 11.89Q29.89 12.39 28.88 12.39L28.88 12.39L28.88 12.39Q28.07 12.39 27.37 12.05L27.37 12.05L27.37 12.05Q26.67 11.72 26.18 11.12L26.18 11.12L26.18 14.90L26.18 14.90Q26.18 15.22 25.98 15.41L25.98 15.41L25.98 15.41Q25.79 15.61 25.47 15.61L25.47 15.61L25.47 15.61Q25.16 15.61 24.96 15.41L24.96 15.41L24.96 15.41Q24.75 15.22 24.75 14.90L24.75 14.90L24.75 8.51L24.75 8.51Q24.75 7.42 25.26 6.53L25.26 6.53L25.26 6.53Q25.77 5.64 26.65 5.13L26.65 5.13L26.65 5.13Q27.52 4.62 28.60 4.62L28.60 4.62ZM28.60 11.13L28.60 11.13Q29.30 11.13 29.87 10.79L29.87 10.79L29.87 10.79Q30.44 10.44 30.77 9.85L30.77 9.85L30.77 9.85Q31.09 9.25 31.09 8.51L31.09 8.51L31.09 8.51Q31.09 7.77 30.77 7.17L30.77 7.17L30.77 7.17Q30.44 6.57 29.87 6.22L29.87 6.22L29.87 6.22Q29.30 5.88 28.60 5.88L28.60 5.88L28.60 5.88Q27.90 5.88 27.34 6.22L27.34 6.22L27.34 6.22Q26.77 6.57 26.45 7.17L26.45 7.17L26.45 7.17Q26.12 7.77 26.12 8.51L26.12 8.51L26.12 8.51Q26.12 9.25 26.45 9.85L26.45 9.85L26.45 9.85Q26.77 10.44 27.34 10.79L27.34 10.79L27.34 10.79Q27.90 11.13 28.60 11.13L28.60 11.13ZM38.44 4.62L38.44 4.62Q39.52 4.62 40.41 5.13L40.41 5.13L40.41 5.13Q41.30 5.64 41.80 6.53L41.80 6.53L41.80 6.53Q42.31 7.42 42.31 8.51L42.31 8.51L42.31 8.51Q42.31 9.60 41.84 10.49L41.84 10.49L41.84 10.49Q41.37 11.38 40.55 11.89L40.55 11.89L40.55 11.89Q39.73 12.39 38.72 12.39L38.72 12.39L38.72 12.39Q37.91 12.39 37.21 12.05L37.21 12.05L37.21 12.05Q36.51 11.72 36.02 11.12L36.02 11.12L36.02 14.90L36.02 14.90Q36.02 15.22 35.83 15.41L35.83 15.41L35.83 15.41Q35.63 15.61 35.31 15.61L35.31 15.61L35.31 15.61Q35 15.61 34.80 15.41L34.80 15.41L34.80 15.41Q34.59 15.22 34.59 14.90L34.59 14.90L34.59 8.51L34.59 8.51Q34.59 7.42 35.11 6.53L35.11 6.53L35.11 6.53Q35.62 5.64 36.49 5.13L36.49 5.13L36.49 5.13Q37.37 4.62 38.44 4.62L38.44 4.62ZM38.44 11.13L38.44 11.13Q39.14 11.13 39.71 10.79L39.71 10.79L39.71 10.79Q40.28 10.44 40.61 9.85L40.61 9.85L40.61 9.85Q40.94 9.25 40.94 8.51L40.94 8.51L40.94 8.51Q40.94 7.77 40.61 7.17L40.61 7.17L40.61 7.17Q40.28 6.57 39.71 6.22L39.71 6.22L39.71 6.22Q39.14 5.88 38.44 5.88L38.44 5.88L38.44 5.88Q37.74 5.88 37.18 6.22L37.18 6.22L37.18 6.22Q36.61 6.57 36.29 7.17L36.29 7.17L36.29 7.17Q35.97 7.77 35.97 8.51L35.97 8.51L35.97 8.51Q35.97 9.25 36.29 9.85L36.29 9.85L36.29 9.85Q36.61 10.44 37.18 10.79L37.18 10.79L37.18 10.79Q37.74 11.13 38.44 11.13L38.44 11.13ZM51.31 8.39L51.31 8.39Q51.31 8.65 51.13 8.83L51.13 8.83L51.13 8.83Q50.95 9.00 50.67 9.00L50.67 9.00L45.35 9.00L45.35 9.00Q45.50 9.98 46.23 10.58L46.23 10.58L46.23 10.58Q46.97 11.19 48.03 11.19L48.03 11.19L48.03 11.19Q48.45 11.19 48.91 11.03L48.91 11.03L48.91 11.03Q49.36 10.88 49.66 10.65L49.66 10.65L49.66 10.65Q49.85 10.50 50.12 10.50L50.12 10.50L50.12 10.50Q50.39 10.50 50.54 10.64L50.54 10.64L50.54 10.64Q50.79 10.85 50.79 11.12L50.79 11.12L50.79 11.12Q50.79 11.37 50.57 11.54L50.57 11.54L50.57 11.54Q50.09 11.91 49.39 12.15L49.39 12.15L49.39 12.15Q48.68 12.39 48.03 12.39L48.03 12.39L48.03 12.39Q46.89 12.39 45.98 11.89L45.98 11.89L45.98 11.89Q45.07 11.40 44.55 10.51L44.55 10.51L44.55 10.51Q44.04 9.63 44.04 8.51L44.04 8.51L44.04 8.51Q44.04 7.39 44.53 6.50L44.53 6.50L44.53 6.50Q45.01 5.61 45.87 5.12L45.87 5.12L45.87 5.12Q46.73 4.62 47.82 4.62L47.82 4.62L47.82 4.62Q48.90 4.62 49.69 5.10L49.69 5.10L49.69 5.10Q50.47 5.57 50.89 6.43L50.89 6.43L50.89 6.43Q51.31 7.28 51.31 8.39L51.31 8.39ZM47.82 5.82L47.82 5.82Q46.80 5.82 46.16 6.38L46.16 6.38L46.16 6.38Q45.53 6.94 45.36 7.88L45.36 7.88L50.02 7.88L50.02 7.88Q49.90 6.94 49.32 6.38L49.32 6.38L49.32 6.38Q48.75 5.82 47.82 5.82L47.82 5.82ZM56.88 4.59L56.88 4.59Q57.62 4.59 58.04 4.82L58.04 4.82L58.04 4.82Q58.46 5.04 58.46 5.38L58.46 5.38L58.46 5.38Q58.46 5.47 58.45 5.52L58.45 5.52L58.45 5.52Q58.32 5.96 57.89 5.96L57.89 5.96L57.89 5.96Q57.82 5.96 57.68 5.94L57.68 5.94L57.68 5.94Q57.12 5.84 56.77 5.84L56.77 5.84L56.77 5.84Q55.76 5.84 55.15 6.30L55.15 6.30L55.15 6.30Q54.53 6.76 54.53 7.55L54.53 7.55L54.53 11.63L54.53 11.63Q54.53 11.97 54.36 12.15L54.36 12.15L54.36 12.15Q54.18 12.33 53.83 12.33L53.83 12.33L53.83 12.33Q53.49 12.33 53.31 12.16L53.31 12.16L53.31 12.16Q53.13 11.98 53.13 11.63L53.13 11.63L53.13 5.38L53.13 5.38Q53.13 5.04 53.31 4.86L53.31 4.86L53.31 4.86Q53.49 4.68 53.83 4.68L53.83 4.68L53.83 4.68Q54.53 4.68 54.53 5.38L54.53 5.38L54.53 5.64L54.53 5.64Q54.95 5.15 55.57 4.87L55.57 4.87L55.57 4.87Q56.18 4.59 56.88 4.59L56.88 4.59ZM60.34 10.61L60.34 10.61Q60.73 10.61 61.02 10.90L61.02 10.90L61.02 10.90Q61.31 11.19 61.31 11.59L61.31 11.59L61.31 11.59Q61.31 11.98 61.03 12.27L61.03 12.27L61.03 12.27Q60.75 12.56 60.34 12.56L60.34 12.56L60.34 12.56Q59.95 12.56 59.66 12.27L59.66 12.27L59.66 12.27Q59.37 11.98 59.37 11.59L59.37 11.59L59.37 11.59Q59.37 11.19 59.66 10.90L59.66 10.90L59.66 10.90Q59.95 10.61 60.34 10.61L60.34 10.61ZM66.67 4.62L66.67 4.62Q68.32 4.62 69.41 5.88L69.41 5.88L69.41 5.88Q69.55 6.03 69.55 6.24L69.55 6.24L69.55 6.24Q69.55 6.55 69.24 6.76L69.24 6.76L69.24 6.76Q69.10 6.86 68.92 6.86L68.92 6.86L68.92 6.86Q68.60 6.86 68.38 6.61L68.38 6.61L68.38 6.61Q68.03 6.23 67.61 6.05L67.61 6.05L67.61 6.05Q67.20 5.88 66.67 5.88L66.67 5.88L66.67 5.88Q65.59 5.88 64.92 6.60L64.92 6.60L64.92 6.60Q64.25 7.32 64.25 8.51L64.25 8.51L64.25 8.51Q64.25 9.27 64.56 9.86L64.56 9.86L64.56 9.86Q64.88 10.46 65.44 10.79L65.44 10.79L65.44 10.79Q66.01 11.13 66.74 11.13L66.74 11.13L66.74 11.13Q67.69 11.13 68.28 10.64L68.28 10.64L68.28 10.64Q68.54 10.44 68.80 10.44L68.80 10.44L68.80 10.44Q68.99 10.44 69.16 10.57L69.16 10.57L69.16 10.57Q69.43 10.79 69.43 11.07L69.43 11.07L69.43 11.07Q69.43 11.28 69.26 11.45L69.26 11.45L69.26 11.45Q68.25 12.39 66.74 12.39L66.74 12.39L66.74 12.39Q65.63 12.39 64.75 11.89L64.75 11.89L64.75 11.89Q63.87 11.38 63.37 10.49L63.37 10.49L63.37 10.49Q62.87 9.60 62.87 8.51L62.87 8.51L62.87 8.51Q62.87 7.39 63.36 6.50L63.36 6.50L63.36 6.50Q63.84 5.61 64.71 5.12L64.71 5.12L64.71 5.12Q65.58 4.62 66.67 4.62L66.67 4.62ZM75.49 4.61L75.49 4.61Q76.45 4.61 77.22 5.03L77.22 5.03L77.22 5.03Q77.99 5.45 78.43 6.25L78.43 6.25L78.43 6.25Q78.86 7.06 78.86 8.19L78.86 8.19L78.86 11.63L78.86 11.63Q78.86 11.94 78.66 12.14L78.66 12.14L78.66 12.14Q78.46 12.35 78.15 12.35L78.15 12.35L78.15 12.35Q77.84 12.35 77.64 12.14L77.64 12.14L77.64 12.14Q77.43 11.94 77.43 11.63L77.43 11.63L77.43 8.19L77.43 8.19Q77.43 7.06 76.83 6.47L76.83 6.47L76.83 6.47Q76.22 5.89 75.21 5.89L75.21 5.89L75.21 5.89Q74.62 5.89 74.14 6.13L74.14 6.13L74.14 6.13Q73.65 6.37 73.38 6.78L73.38 6.78L73.38 6.78Q73.11 7.18 73.11 7.69L73.11 7.69L73.11 11.63L73.11 11.63Q73.11 11.94 72.91 12.14L72.91 12.14L72.91 12.14Q72.72 12.35 72.39 12.35L72.39 12.35L72.39 12.35Q72.09 12.35 71.88 12.14L71.88 12.14L71.88 12.14Q71.68 11.94 71.68 11.63L71.68 11.63L71.68 2.11L71.68 2.11Q71.68 1.79 71.88 1.60L71.88 1.60L71.88 1.60Q72.09 1.40 72.39 1.40L72.39 1.40L72.39 1.40Q72.72 1.40 72.91 1.60L72.91 1.60L72.91 1.60Q73.11 1.79 73.11 2.11L73.11 2.11L73.11 5.54L73.11 5.54Q73.56 5.10 74.17 4.85L74.17 4.85L74.17 4.85Q74.79 4.61 75.49 4.61L75.49 4.61Z"></path></g><!----><!----></svg>
