<svg width="576" height="286" xmlns="http://www.w3.org/2000/svg"><linearGradient id="a" x1="288.051" y1=".168" x2="288.051" y2="285.981" gradientUnits="userSpaceOnUse"><stop offset="0" stop-color="#234282"/><stop offset="1" stop-color="#7295e8"/></linearGradient><path fill="url(#a)" fill-rule="evenodd" d="M576.018.178H.068V286h575.95z"/><path fill="#65b4ff" fill-rule="evenodd" d="m149.028 55.736 4.646-3.29-1.79-5.47 4.549 3.388 4.597-3.387-1.79 5.42 4.645 3.34-5.662-.098-1.79 5.469-1.694-5.42zM527.333 47.073l4.065-2.903-1.597-4.791 4.017 3 4.065-3-1.597 4.742 4.113 2.952-4.984-.048-1.549 4.791-1.5-4.743zM207.005 95.614l5.42-3.824-2.129-6.34 5.324 3.92 5.42-3.92-2.13 6.244 5.42 3.92-6.63-.049-2.032 6.34-1.984-6.291zM207.925 26.99l3.29-2.372-1.257-3.92 3.242 2.42 3.34-2.42-1.307 3.872 3.387 2.42-4.113-.049-1.259 3.92-1.21-3.92zM461.37 117.779l3.823-2.71-1.451-4.55 3.774 2.807 3.824-2.807-1.5 4.501 3.87 2.759-4.693-.049-1.5 4.55-1.404-4.501zM394.44 46.493l-2.856-2.033 1.114-3.34-2.807 2.082-2.856-2.081 1.113 3.29-2.855 2.082 3.485-.049 1.113 3.34 1.016-3.34zM328.429 20.31l-5.614-4.016 2.178-6.582-5.517 4.114-5.614-4.114 2.178 6.534-5.614 4.065 6.872-.097 2.13 6.63 2.032-6.582zM50.302 103.502l-2.807-1.984 1.065-3.34-2.759 2.082-2.855-2.081 1.113 3.29-2.855 2.033h3.484l1.065 3.34 1.065-3.34zM51.27 36.523l-5.614-4.017 2.178-6.581-5.565 4.113-5.614-4.113 2.226 6.533-5.662 4.065 6.92-.097 2.081 6.63 2.081-6.581zM365.403 94.84l-3.34-2.372 1.259-3.92-3.243 2.42-3.339-2.42 1.307 3.872-3.34 2.42 4.066-.05 1.258 3.92 1.21-3.92zM17.006 25.683l1.259-.871-.484-1.5 1.258.919 1.258-.92-.484 1.452 1.258.92h-1.548l-.484 1.5-.484-1.5z"/><g fill-rule="evenodd"><path fill="#5271bc" d="M576.018 54.284c-37.796 0-70.173 94.42-95.435 66.543-44.33-48.83-66.108 4.501-72.786 3.872-31.941-3.049-33.296-70.415-67.511-73.609-34.167-3.242-49.702 80.626-69.447 77.432-19.746-3.242-58.994-78.11-83.579-78.545-24.536-.436-68.818 74.19-101.968 74.625-33.102.436-44.427-70.318-85.224-70.318L.02 217.473h575.998V54.284z"/><path fill="#4364ac" d="M374.065 86.273c-3.774-7.646-7.598-15.244-12.244-21.39-5.71-6.146-12.534-10.454-21.293-11.228-10.115-.871-18.73 4.598-26.327 12.97-4.066 5.372-7.84 11.663-11.373 18.148 1.355-.726 2.516-1.694 3.29-2.855.969 2.323 3.437 4.017 6.292 4.017a8.01 8.01 0 0 0 1.549-.146c1.21 5.47 6.485 9.583 12.824 9.583 6.679 0 12.196-4.598 12.97-10.55 1.888-.533 3.436-1.936 3.969-3.679.87 2.662 3.533 4.598 6.775 4.598 2.081 0 3.968-.823 5.275-2.178 2.033 3.291 5.904 5.469 10.357 5.469 3.048 0 5.807-1.065 7.936-2.759zM226.267 82.499c-2.275-2.71-4.501-5.42-6.727-8.034-11.518-11.615-22.65-20.374-31.941-20.52-11.373-.145-26.617 12.825-43.217 28.021l-2.807 2.856c2.226 2.274 5.469 3.726 9.099 3.726 4.5 0 8.42-2.178 10.501-5.469 1.307 1.355 3.243 2.226 5.372 2.226 3.243 0 5.953-1.984 6.824-4.645.58 1.79 2.08 3.145 4.065 3.678.774 5.952 6.34 10.55 13.115 10.55 6.437 0 11.809-4.114 13.018-9.583a8.01 8.01 0 0 0 1.55.146c2.903 0 5.42-1.646 6.339-4.017 1.645 2.323 4.549 3.871 7.84 3.871 2.758 0 5.275-1.064 6.969-2.806z"/><path fill="#afd1ec" d="M372.178 82.402c-7.84-15.583-16.6-29.908-31.892-31.312-15.148-1.452-26.666 14.228-36.442 31.893a8.46 8.46 0 0 0 5.033-3.679c.871 2.372 3.097 4.066 5.76 4.066.483 0 .919-.049 1.403-.146 1.064 5.47 5.904 9.583 11.711 9.583 6.098 0 11.131-4.646 11.857-10.55 1.742-.533 3.097-1.936 3.63-3.678a6.402 6.402 0 0 0 6.146 4.597 6.5 6.5 0 0 0 4.84-2.178c1.887 3.243 5.42 5.469 9.485 5.469 3.387 0 6.436-1.597 8.469-4.065z"/><path fill="#d5f1ff" d="M370.533 79.256c-7.453-14.325-15.97-26.86-30.247-28.166-12.922-1.21-23.182 9.97-31.99 24.246.194-.242.388-.532.581-.823.871 2.372 3.097 4.066 5.76 4.066.483 0 .919-.049 1.403-.194 1.064 5.469 5.904 9.582 11.711 9.582 6.098 0 11.131-4.597 11.857-10.502 1.742-.532 3.097-1.935 3.63-3.726a6.388 6.388 0 0 0 6.146 4.646 6.5 6.5 0 0 0 4.84-2.178c1.887 3.243 5.42 5.469 9.485 5.469 2.565 0 4.936-.92 6.824-2.42z"/><path fill="#afd1ec" d="M222.54 77.998c-12.68-15.148-25.214-27.827-35.28-28.02-10.889-.195-25.65 14.372-41.62 30.73a10.829 10.829 0 0 0 8.324 3.872c4.066 0 7.598-2.178 9.437-5.47a6.485 6.485 0 0 0 4.84 2.179c2.952 0 5.42-1.936 6.195-4.598.484 1.742 1.887 3.146 3.63 3.678.677 5.953 5.758 10.55 11.856 10.55 5.807 0 10.647-4.113 11.712-9.582.435.097.92.145 1.403.145 2.662 0 4.888-1.694 5.76-4.017 1.451 2.323 4.064 3.872 7.065 3.872 2.71 0 5.13-1.307 6.678-3.34z"/><path fill="#d5f1ff" d="M220.363 75.433c-11.906-13.986-23.617-25.262-33.103-25.456-10.356-.194-24.197 12.97-39.248 28.263 1.742 1.113 3.775 1.79 5.952 1.79 4.066 0 7.598-2.226 9.437-5.468 1.21 1.306 2.953 2.178 4.84 2.178 2.952 0 5.42-1.936 6.195-4.598.484 1.742 1.887 3.146 3.63 3.678.677 5.904 5.758 10.502 11.856 10.502 5.807 0 10.647-4.114 11.712-9.534.435.097.92.145 1.403.145 2.662 0 4.888-1.694 5.76-4.065 1.451 2.371 4.064 3.92 7.065 3.92a8.077 8.077 0 0 0 4.5-1.355z"/><path fill-opacity=".102" d="M559.854 59.656c-9.63 6.05-18.825 16.6-27.633 27.488 2.468-.629 4.5-1.887 5.855-3.484 1.114 2.371 4.066 4.017 7.55 4.017.63 0 1.21-.049 1.79-.145 1.453 5.468 7.792 9.582 15.342 9.582 5.614 0 10.502-2.226 13.26-5.614V55.349c-5.759.097-11.13 1.645-16.164 4.307z"/><path fill="#d5f1ff" d="M576.018 50.993c-16.503.388-29.23 15.293-40.216 31.99 2.516-.533 4.646-1.888 5.952-3.679 1.017 2.372 3.678 4.066 6.824 4.066.58 0 1.113-.049 1.646-.146 1.306 5.47 7.017 9.583 13.84 9.583 5.034 0 9.486-2.275 11.954-5.614v-36.2z"/><path fill="#afd1ec" d="M576.018 82.547c-2.468 3.34-6.92 5.565-11.953 5.565-6.824 0-12.535-4.113-13.841-9.582a9.051 9.051 0 0 1-1.646.145c-3.146 0-5.807-1.645-6.824-4.016-.29.387-.629.822-1.016 1.161-1.694 2.323-3.34 4.743-4.936 7.163 2.516-.533 4.646-1.888 5.952-3.679 1.017 2.372 3.678 4.066 6.824 4.066.58 0 1.113-.049 1.646-.146 1.306 5.47 7.017 9.583 13.84 9.583 5.034 0 9.486-2.275 11.954-5.614v-4.646z"/><g><path fill-opacity=".102" d="M44.156 87.483C36.268 76.062 27.896 64.98 17.248 58.93c-4.162-1.887-8.808-3.146-13.986-3.533-1.065-.048-2.13-.096-3.194-.096V91.5a10.262 10.262 0 0 0 2.275-4.936c2.274-.533 4.065-1.888 4.742-3.678 1.017 2.661 4.26 4.646 8.082 4.646 2.517 0 4.791-.871 6.34-2.227 2.468 3.291 7.114 5.47 12.39 5.47 4.016 0 7.646-1.26 10.259-3.292z"/><path fill="#d5f1ff" d="M40.623 82.402C31.38 66.819 21.071 52.494 2.972 51.09c-1.017-.097-1.936-.097-2.904-.097v36.2a11.478 11.478 0 0 0 2.081-4.936c2.033-.533 3.678-1.936 4.259-3.678.968 2.661 3.871 4.597 7.307 4.597 2.275 0 4.356-.871 5.76-2.178 2.226 3.243 6.388 5.469 11.179 5.469 4.016 0 7.646-1.597 9.97-4.065z"/><path fill="#afd1ec" d="M40.623 82.402c-.58-1.017-1.21-2.033-1.839-3.05-2.226 1.501-5.033 2.42-8.13 2.42-4.791 0-8.953-2.177-11.18-5.468-1.403 1.355-3.484 2.226-5.759 2.226-3.436 0-6.34-1.984-7.307-4.646-.581 1.79-2.226 3.146-4.259 3.678-.29 1.84-1.016 3.485-2.081 4.985v4.646a11.478 11.478 0 0 0 2.081-4.936c2.033-.533 3.678-1.936 4.259-3.678.968 2.661 3.871 4.597 7.307 4.597 2.275 0 4.356-.871 5.76-2.178 2.226 3.243 6.388 5.469 11.179 5.469 4.016 0 7.646-1.597 9.97-4.065z"/></g></g><path fill="#4364ac" fill-rule="evenodd" d="M.02 136.798c71.237 0 87.062 14.615 112.954 12.195 31.94-3.048 44.572-26.375 78.739-29.569 34.215-3.242 63.397 31.99 99.452 31.99 36.054 0 46.846-37.604 71.382-38.04 24.585-.435 40.943 61.753 84.547 34.458 43.555-27.295 74.673-11.034 128.924-11.034v123.214H.02V136.798z"/><g fill-rule="evenodd"><path fill="#233f7a" d="M.02 286h575.998V183.45c-206.695 25.553-379.998-71.963-575.998 0V286z"/><path fill="#324f8e" d="M576.018 189.258v-5.807c-206.695 25.552-379.998-71.964-575.998 0v5.807c196-71.963 369.303 25.553 575.998 0z"/><path fill="#233f7a" d="M571.47 174.788c1.112.63 2.322 1.21 3.677 1.742-2.42 1.307-4.017 1.742-6.098.775.34.338.823.629 1.355 1.016-.677 0-1.306 0-1.887-.049.436 1.21 1.5 2.614 4.065 4.598-2.758.048-4.936.58-7.55-2.468-.145 3.436.049 3.823 2.227 6.92-2.662-.29-4.356-1.113-5.517-2.371v8.808h-6.001v-7.598c-1.259.532-2.759.774-4.308 1.161 1.743-2.758 2.13-4.113 1.888-6.097-2.323 3.387-4.5 3-8.905 2.952 2.372-1.646 3.436-2.952 3.533-5.227-3.194 2.855-4.21 2.759-7.356 1.742 3-1.258 3.049-2.323 3.436-4.065-.774.871-2.904.678-5.759-.097 1.936 0 4.598-1.5 7.743-3.726.29-.533.533-1.162.775-1.936-2.275 1.355-3.533 1.307-6.195.29 2.081-.822 3.968-1.984 5.807-3.339-.677.097-1.355.097-2.08.049 1.935-.775 2.613-1.307 3.677-3.05-.435.097-.92.194-1.451.291l.58-.436c-1.5.678-2.807.581-4.5.146 1.693 0 4.597-1.84 7.84-4.26.242-.531.435-1.112.629-1.693-1.597 1.113-3.34 1.549-5.227 1.404 4.598-2.372 7.985-7.55 11.954-11.325 4.84 4.646 10.501 10.889 12.97 10.889-1.791.58-3.098.532-4.84-1.162.484.968.823 1.646 1.162 2.178 2.129 1.79 4.355 3.388 6.872 4.404-2.372.145-4.55-.242-6.534-1.403.29.822.678 1.548 1.162 2.274 3.049 2.13 5.71 3.582 7.404 3.582-2.565.677-3.146.774-4.743.58 1.791 3.098 1.55 2.807 3.63 3.92-1.258.29-2.323.581-3.436.581z"/><path fill="#233f7a" d="M543.739 178.224c1.403.774 2.855 1.452 4.452 2.13-2.904 1.597-4.84 2.08-7.404.967.484.34 1.016.726 1.693 1.162-.822.048-1.597.048-2.323 0 .581 1.452 1.84 3.146 4.985 5.565-3.388.049-6.05.726-9.195-3-.145 4.162.048 4.646 2.71 8.372-3.242-.339-5.275-1.307-6.727-2.855v10.695h-7.259v-9.243c-1.5.629-3.34.968-5.227 1.452 2.13-3.388 2.565-5.034 2.275-7.453-2.807 4.162-5.42 3.678-10.84 3.63 2.903-1.985 4.258-3.582 4.355-6.389-3.872 3.485-5.178 3.388-8.953 2.13 3.678-1.5 3.678-2.807 4.21-4.888-.968 1.016-3.581.774-7.065-.146 2.37 0 5.613-1.839 9.437-4.549.338-.629.629-1.403.968-2.323-2.759 1.646-4.356 1.597-7.502.388 2.468-1.065 4.791-2.469 6.97-4.066-.775.049-1.598.049-2.517.049 2.371-.968 3.194-1.597 4.5-3.727-.532.097-1.161.242-1.742.34.194-.194.436-.34.678-.533-1.791.822-3.436.774-5.469.193 2.081.049 5.565-2.226 9.485-5.178.34-.63.581-1.355.775-2.081-1.888 1.404-4.017 1.936-6.292 1.742 5.566-2.903 9.631-9.195 14.47-13.744 5.856 5.614 12.728 13.212 15.729 13.212-2.13.726-3.726.63-5.807-1.404.532 1.162.919 2.033 1.355 2.662 2.565 2.13 5.323 4.065 8.372 5.324-2.855.193-5.565-.29-7.937-1.694.339.968.774 1.887 1.404 2.758 3.726 2.565 6.92 4.308 9.001 4.308-3.146.822-3.823.967-5.807.725 2.226 3.775 1.935 3.436 4.452 4.792-1.549.338-2.855.725-4.21.677z"/><path fill="#233f7a" d="M514.798 174.788c1.162.63 2.372 1.21 3.678 1.742-2.371 1.307-3.968 1.742-6.097.775.387.338.822.629 1.403 1.016-.677 0-1.307 0-1.936-.049.484 1.21 1.5 2.614 4.114 4.598-2.759.048-4.985.58-7.598-2.468-.097 3.436.048 3.823 2.226 6.92-2.613-.29-4.307-1.113-5.517-2.371v8.808h-5.953v-7.598c-1.258.532-2.758.774-4.355 1.161 1.79-2.758 2.13-4.113 1.887-6.097-2.323 3.387-4.452 3-8.904 2.952 2.37-1.646 3.484-2.952 3.58-5.227-3.193 2.855-4.258 2.759-7.404 1.742 3.05-1.258 3.05-2.323 3.485-4.065-.775.871-2.952.678-5.808-.097 1.936 0 4.646-1.5 7.792-3.726.242-.533.484-1.162.774-1.936-2.274 1.355-3.581 1.307-6.194.29 2.08-.822 3.968-1.984 5.759-3.339-.63.097-1.307.097-2.081.049 1.984-.775 2.613-1.307 3.726-3.05l-1.452.291c.194-.145.34-.29.533-.436-1.452.678-2.807.581-4.453.146 1.694 0 4.55-1.84 7.792-4.26.29-.531.484-1.112.629-1.693-1.549 1.113-3.29 1.549-5.178 1.404 4.549-2.372 7.937-7.55 11.905-11.325 4.84 4.646 10.502 10.889 12.97 10.889-1.79.58-3.049.532-4.791-1.162.435.968.774 1.646 1.113 2.178 2.13 1.79 4.355 3.388 6.92 4.404-2.371.145-4.597-.242-6.533-1.403.242.822.63 1.548 1.113 2.274 3.097 2.13 5.71 3.582 7.453 3.582-2.565.677-3.194.774-4.791.58 1.839 3.098 1.597 2.807 3.63 3.92-1.21.29-2.324.581-3.437.581z"/><path fill="#233f7a" d="M487.116 178.224c1.355.774 2.856 1.452 4.453 2.13-2.904 1.597-4.84 2.08-7.405.967.436.34 1.017.726 1.646 1.162-.823.048-1.549.048-2.275 0 .532 1.452 1.79 3.146 4.936 5.565-3.339.049-6 .726-9.146-3-.194 4.162.048 4.646 2.662 8.372-3.195-.339-5.227-1.307-6.727-2.855v10.695h-7.211v-9.243c-1.549.629-3.34.968-5.275 1.452 2.129-3.388 2.613-5.034 2.274-7.453-2.807 4.162-5.42 3.678-10.792 3.63 2.904-1.985 4.21-3.582 4.307-6.389-3.871 3.485-5.13 3.388-8.953 2.13 3.678-1.5 3.678-2.807 4.21-4.888-.967 1.016-3.532.774-7.017-.146 2.323 0 5.614-1.839 9.437-4.549.34-.629.63-1.403.92-2.323-2.759 1.646-4.307 1.597-7.501.388 2.516-1.065 4.79-2.469 7.017-4.066-.774.049-1.646.049-2.565.049 2.42-.968 3.194-1.597 4.5-3.727-.532.097-1.112.242-1.742.34.242-.194.436-.34.678-.533-1.79.822-3.388.774-5.42.193 2.032.049 5.517-2.226 9.485-5.178.29-.63.58-1.355.726-2.081-1.887 1.404-4.017 1.936-6.291 1.742 5.565-2.903 9.679-9.195 14.47-13.744 5.856 5.614 12.776 13.212 15.728 13.212-2.13.726-3.678.63-5.807-1.404.532 1.162.968 2.033 1.355 2.662 2.613 2.13 5.323 4.065 8.42 5.324-2.903.193-5.565-.29-7.985-1.694.34.968.823 1.887 1.404 2.758 3.726 2.565 6.92 4.308 9.05 4.308-3.146.822-3.872.967-5.808.725 2.178 3.775 1.888 3.436 4.404 4.792-1.5.338-2.855.725-4.162.677z"/><path fill="#233f7a" d="M457.644 175.562c1.355.775 2.807 1.452 4.355 2.081-2.807 1.549-4.742 2.033-7.21.92.435.387.967.726 1.645 1.161h-2.275c.533 1.404 1.79 3.05 4.84 5.42-3.243 0-5.856.678-8.905-2.903-.193 4.017.049 4.452 2.613 8.13-3.145-.338-5.13-1.306-6.533-2.758v10.356h-7.066v-8.953c-1.5.63-3.242.92-5.081 1.404 2.033-3.291 2.468-4.937 2.178-7.26-2.71 4.017-5.275 3.582-10.502 3.533 2.807-1.936 4.114-3.484 4.21-6.243-3.774 3.436-5.033 3.291-8.71 2.13 3.58-1.5 3.58-2.807 4.064-4.791-.92.967-3.436.774-6.823-.146 2.274 0 5.468-1.79 9.195-4.404.29-.629.58-1.403.87-2.274-2.66 1.597-4.161 1.548-7.258.339 2.42-.968 4.646-2.372 6.775-3.92-.726.048-1.549.048-2.42.048 2.323-.968 3.097-1.549 4.356-3.63-.533.097-1.113.242-1.694.34.194-.194.435-.34.63-.533-1.743.822-3.292.726-5.276.193 1.984.049 5.372-2.129 9.243-5.033.29-.629.533-1.306.726-1.984-1.839 1.355-3.92 1.84-6.146 1.645 5.42-2.806 9.389-8.904 14.083-13.357 5.71 5.47 12.39 12.874 15.341 12.825-2.129.726-3.63.63-5.71-1.355.532 1.162.968 1.984 1.355 2.613 2.516 2.081 5.178 3.969 8.179 5.179-2.807.193-5.42-.29-7.744-1.646.29.92.775 1.84 1.356 2.662 3.63 2.517 6.726 4.21 8.759 4.21-3.049.823-3.726.92-5.614.726 2.13 3.678 1.84 3.34 4.259 4.598-1.452.387-2.759.726-4.065.677z"/><path fill="#233f7a" d="M434.414 164.528c1.597.92 3.34 1.743 5.227 2.517-3.388 1.887-5.71 2.468-8.711 1.113.532.435 1.161.871 1.984 1.403-.968.049-1.888.049-2.759 0 .678 1.743 2.178 3.678 5.905 6.582-3.969 0-7.163.823-10.89-3.533-.193 4.888.097 5.42 3.195 9.873-3.775-.436-6.195-1.549-7.937-3.388v12.631h-8.518v-10.889c-1.839.726-3.968 1.114-6.243 1.694 2.517-4.017 3.05-5.952 2.71-8.808-3.339 4.888-6.388 4.356-12.776 4.26 3.436-2.324 4.985-4.211 5.13-7.502-4.597 4.113-6.098 3.968-10.598 2.516 4.355-1.79 4.355-3.339 4.984-5.807-1.113 1.21-4.21.968-8.324-.145 2.759 0 6.63-2.13 11.131-5.372.387-.774.775-1.645 1.113-2.71-3.242 1.887-5.081 1.839-8.856.387 2.952-1.21 5.662-2.855 8.276-4.791-.92.097-1.888.097-3 .097 2.854-1.162 3.774-1.936 5.323-4.404-.63.145-1.356.242-2.081.387.29-.194.532-.436.774-.63-2.081 1.017-4.017.872-6.388.243 2.42 0 6.533-2.614 11.179-6.098.387-.774.677-1.597.92-2.468-2.227 1.645-4.743 2.226-7.453 2.032 6.581-3.387 11.42-10.84 17.083-16.212 6.92 6.63 15.051 15.583 18.584 15.583-2.517.871-4.356.775-6.872-1.645.677 1.355 1.161 2.371 1.597 3.145 3.097 2.517 6.291 4.792 9.92 6.292-3.387.193-6.533-.387-9.388-2.033a12.488 12.488 0 0 0 1.694 3.291c4.355 3 8.13 5.082 10.598 5.082-3.678.968-4.5 1.161-6.823.87 2.613 4.453 2.274 4.066 5.226 5.615-1.79.435-3.387.87-4.936.822z"/><path fill="#233f7a" d="M392.214 170.53c1.306.725 2.758 1.403 4.307 2.032-2.807 1.549-4.695 2.08-7.163.968.436.339.968.726 1.597 1.161-.774 0-1.548 0-2.226-.048.532 1.452 1.742 3.049 4.791 5.468-3.242 0-5.856.678-8.904-2.952-.146 4.017.048 4.501 2.613 8.18-3.146-.388-5.13-1.308-6.533-2.808v10.405h-7.018v-9.001c-1.5.629-3.29.92-5.13 1.403 2.081-3.29 2.517-4.888 2.227-7.21-2.759 4.016-5.276 3.58-10.55 3.484 2.806-1.936 4.113-3.485 4.21-6.195-3.775 3.388-4.985 3.291-8.663 2.081 3.533-1.452 3.533-2.758 4.065-4.791-.92 1.016-3.484.774-6.872-.097 2.275 0 5.469-1.79 9.195-4.452.339-.63.63-1.355.92-2.226-2.71 1.548-4.21 1.5-7.308.339 2.42-1.017 4.694-2.372 6.824-3.969-.775.097-1.597.097-2.468.097 2.323-.968 3.097-1.597 4.355-3.678-.532.145-1.065.242-1.694.339.242-.146.436-.34.678-.484-1.742.822-3.34.726-5.324.193 2.033 0 5.42-2.178 9.244-5.033.29-.629.532-1.307.726-2.032-1.84 1.355-3.872 1.839-6.146 1.645 5.42-2.759 9.388-8.905 14.131-13.357 5.662 5.469 12.39 12.873 15.293 12.873-2.081.678-3.63.63-5.662-1.355.532 1.113.92 1.936 1.306 2.565 2.517 2.08 5.179 3.968 8.18 5.178-2.808.194-5.421-.29-7.744-1.645.339.968.774 1.839 1.355 2.71 3.63 2.468 6.727 4.21 8.76 4.162-3.05.823-3.727.968-5.614.726 2.129 3.678 1.839 3.34 4.307 4.646-1.5.338-2.759.677-4.065.677z"/><path fill="#233f7a" d="M360.999 161.383c1.645.92 3.387 1.742 5.275 2.516-3.436 1.888-5.76 2.517-8.76 1.113.533.484 1.21.92 1.984 1.452-.967 0-1.887 0-2.71-.048.63 1.742 2.13 3.726 5.856 6.63-3.968 0-7.162.823-10.84-3.581-.194 4.887.048 5.468 3.145 9.92-3.774-.435-6.194-1.596-7.936-3.387v12.631h-8.518v-10.937c-1.839.774-3.968 1.113-6.195 1.694 2.517-3.969 3.05-5.905 2.662-8.76-3.34 4.888-6.388 4.356-12.776 4.259 3.436-2.323 4.985-4.259 5.13-7.55-4.598 4.114-6.098 4.017-10.55 2.565 4.307-1.79 4.307-3.388 4.936-5.807-1.113 1.161-4.21.92-8.324-.145 2.758 0 6.63-2.178 11.13-5.372.436-.775.775-1.694 1.114-2.759-3.243 1.888-5.082 1.84-8.856.436 2.952-1.21 5.71-2.904 8.275-4.791-.92.048-1.887.096-3 .048 2.855-1.161 3.774-1.887 5.323-4.404-.629.145-1.355.29-2.08.387.29-.193.531-.387.822-.58-2.13.967-4.017.87-6.437.241 2.42 0 6.534-2.661 11.228-6.146.339-.774.677-1.597.871-2.42-2.226 1.646-4.743 2.227-7.453 1.985 6.582-3.388 11.421-10.792 17.132-16.213 6.92 6.63 15.051 15.632 18.584 15.632-2.565.823-4.404.726-6.92-1.694.677 1.404 1.16 2.42 1.645 3.146 3.049 2.565 6.243 4.84 9.92 6.291-3.435.242-6.581-.339-9.436-1.984.387 1.161.968 2.226 1.694 3.242 4.355 3.05 8.13 5.13 10.646 5.13-3.726.968-4.549 1.113-6.872.823 2.614 4.5 2.275 4.065 5.227 5.662-1.79.436-3.34.823-4.936.775zM65.305 157.511a31.606 31.606 0 0 1-3.63 1.742c2.371 1.307 3.968 1.742 6.05.823-.34.29-.823.58-1.356.968h1.888c-.436 1.21-1.5 2.565-4.065 4.597 2.758 0 4.984.581 7.55-2.468.144 3.388-.05 3.775-2.227 6.872 2.662-.29 4.356-1.064 5.565-2.323v8.76h5.953v-7.598c1.258.532 2.759.774 4.307 1.21-1.742-2.807-2.13-4.162-1.887-6.146 2.323 3.387 4.5 3.048 8.953 2.952-2.42-1.597-3.485-2.904-3.581-5.227 3.194 2.855 4.258 2.758 7.356 1.742-3-1.21-3-2.323-3.436-4.017.774.823 2.903.63 5.807-.096-1.936 0-4.646-1.5-7.792-3.775-.29-.533-.532-1.162-.774-1.888 2.275 1.307 3.581 1.259 6.195.29-2.081-.87-3.969-2.032-5.808-3.339a29.18 29.18 0 0 0 2.081.049c-1.936-.823-2.613-1.355-3.678-3.097.436.096.92.193 1.452.29l-.58-.436c1.5.678 2.806.63 4.5.194-1.694 0-4.55-1.839-7.84-4.259a25.131 25.131 0 0 1-.63-1.742c1.598 1.161 3.34 1.549 5.228 1.403-4.598-2.37-7.937-7.55-11.954-11.324-4.791 4.646-10.502 10.937-12.97 10.889 1.79.629 3.097.532 4.84-1.162-.484.968-.823 1.694-1.113 2.227-2.178 1.742-4.404 3.339-6.92 4.355 2.37.194 4.548-.242 6.532-1.403a10.43 10.43 0 0 1-1.161 2.323c-3.049 2.08-5.71 3.532-7.405 3.532 2.565.678 3.146.775 4.743.581-1.79 3.146-1.548 2.856-3.63 3.92 1.259.339 2.372.63 3.437.581z"/><path fill="#233f7a" d="M98.794 148.558c-1.355.774-2.855 1.452-4.452 2.13 2.903 1.596 4.84 2.08 7.404.967-.435.339-1.016.726-1.645 1.162.822.048 1.548.048 2.274 0-.532 1.452-1.79 3.145-4.936 5.565 3.34.048 6 .726 9.147-3 .193 4.162-.049 4.646-2.662 8.372 3.194-.339 5.227-1.307 6.727-2.855v10.695h7.21v-9.244c1.55.63 3.34.968 5.276 1.452-2.13-3.387-2.614-5.033-2.275-7.452 2.807 4.161 5.42 3.678 10.792 3.63-2.903-1.985-4.21-3.582-4.307-6.389 3.872 3.484 5.13 3.388 8.953 2.13-3.678-1.5-3.678-2.808-4.21-4.889.968 1.017 3.533.775 7.017-.145-2.323 0-5.614-1.839-9.437-4.549-.339-.629-.629-1.403-.92-2.323 2.76 1.646 4.308 1.597 7.502.387-2.517-1.064-4.791-2.468-7.017-4.065.774.049 1.597.049 2.564.049-2.42-.968-3.194-1.597-4.5-3.727.532.097 1.113.242 1.742.339-.242-.194-.436-.339-.678-.532 1.791.822 3.388.774 5.42.193-2.032.049-5.516-2.226-9.485-5.178-.29-.63-.58-1.355-.726-2.081 1.888 1.403 4.017 1.936 6.292 1.742-5.566-2.904-9.68-9.195-14.47-13.744-5.856 5.614-12.777 13.212-15.777 13.212 2.178.726 3.726.629 5.856-1.404-.533 1.162-.968 2.033-1.356 2.662-2.613 2.13-5.323 4.065-8.42 5.323 2.903.194 5.565-.29 7.985-1.693a12.35 12.35 0 0 1-1.404 2.758c-3.726 2.565-6.92 4.307-9.05 4.307 3.146.823 3.872.968 5.808.726-2.178 3.775-1.887 3.436-4.404 4.791 1.5.34 2.855.726 4.162.678z"/><path fill="#233f7a" d="M129.767 150.107a36.919 36.919 0 0 1-3.678 1.742c2.371 1.306 3.968 1.742 6.098.774-.388.339-.823.63-1.404 1.016h1.936c-.484 1.21-1.5 2.565-4.114 4.598 2.759 0 4.985.58 7.55-2.468.145 3.387 0 3.775-2.178 6.872 2.614-.29 4.307-1.113 5.517-2.371v8.807h5.953v-7.598c1.258.533 2.758.775 4.355 1.21-1.79-2.807-2.129-4.162-1.887-6.146 2.323 3.388 4.452 3.049 8.905 2.952-2.372-1.597-3.485-2.952-3.581-5.226 3.194 2.855 4.258 2.758 7.356 1.742-3-1.21-3-2.323-3.436-4.017.774.823 2.903.63 5.807-.097-1.936 0-4.646-1.548-7.792-3.775-.242-.532-.532-1.161-.774-1.887 2.275 1.307 3.581 1.258 6.195.29-2.081-.87-3.969-2.032-5.76-3.339.63.048 1.307.048 2.082.048-1.985-.822-2.614-1.355-3.727-3.097l1.452.29c-.194-.145-.339-.29-.532-.435 1.451.677 2.807.63 4.452.194-1.694 0-4.55-1.84-7.792-4.308-.29-.532-.484-1.113-.629-1.693 1.549 1.161 3.291 1.548 5.179 1.403-4.598-2.371-7.937-7.55-11.906-11.324-4.84 4.645-10.501 10.888-12.97 10.888 1.791.63 3.05.533 4.792-1.161-.436.968-.775 1.694-1.114 2.226-2.129 1.742-4.404 3.34-6.92 4.356 2.371.193 4.597-.242 6.533-1.404a7.476 7.476 0 0 1-1.161 2.323c-3.05 2.081-5.662 3.533-7.405 3.533 2.565.678 3.194.774 4.791.58-1.839 3.146-1.597 2.856-3.63 3.92 1.21.34 2.324.63 3.437.582z"/><path fill="#233f7a" d="M152.077 158.527c-1.403.726-2.855 1.452-4.452 2.13 2.903 1.548 4.84 2.08 7.404.92-.484.386-1.016.773-1.694 1.209h2.323c-.532 1.452-1.839 3.146-4.984 5.565 3.387 0 6.049.726 9.195-3 .145 4.162-.049 4.598-2.71 8.372 3.242-.387 5.275-1.306 6.726-2.855v10.695h7.26v-9.243c1.5.629 3.339.92 5.226 1.452-2.129-3.388-2.565-5.033-2.274-7.453 2.855 4.113 5.42 3.678 10.84 3.581-2.903-1.936-4.258-3.581-4.355-6.34 3.871 3.485 5.178 3.34 8.953 2.13-3.678-1.5-3.678-2.856-4.21-4.937.967 1.017 3.58.823 7.065-.096-2.371 0-5.614-1.84-9.437-4.55a15.486 15.486 0 0 1-.92-2.322c2.76 1.597 4.308 1.548 7.502.338-2.517-1.016-4.84-2.42-7.017-4.016.774.048 1.597.048 2.516.048-2.371-1.016-3.194-1.646-4.5-3.727.532.097 1.16.194 1.79.34a30.21 30.21 0 0 0-.678-.533c1.743.823 3.388.726 5.42.193-2.08 0-5.565-2.226-9.485-5.178a10.774 10.774 0 0 1-.774-2.08c1.887 1.403 4.017 1.887 6.291 1.693-5.565-2.855-9.63-9.147-14.47-13.696-5.856 5.614-12.728 13.212-15.728 13.212 2.13.726 3.726.63 5.807-1.452-.532 1.21-.92 2.033-1.355 2.71-2.565 2.13-5.323 4.066-8.372 5.324 2.855.193 5.565-.339 7.937-1.742-.34 1.016-.775 1.935-1.404 2.807-3.726 2.564-6.92 4.307-9.001 4.307 3.145.822 3.823.968 5.807.726-2.226 3.774-1.936 3.436-4.452 4.742 1.548.388 2.855.726 4.21.726z"/><path fill="#233f7a" d="M183.243 152.236c-1.355.726-2.758 1.452-4.355 2.08 2.855 1.55 4.743 2.034 7.21.92-.435.34-.967.726-1.645 1.162h2.275c-.532 1.403-1.79 3.049-4.84 5.42 3.243 0 5.856.678 8.954-2.904.145 4.017-.049 4.453-2.662 8.13 3.145-.338 5.13-1.306 6.533-2.806v10.405h7.066v-8.953c1.5.58 3.242.92 5.13 1.403-2.081-3.339-2.517-4.936-2.226-7.259 2.758 4.017 5.275 3.581 10.501 3.484-2.807-1.887-4.113-3.484-4.21-6.194 3.775 3.387 5.033 3.29 8.711 2.08-3.581-1.451-3.581-2.758-4.065-4.742.92.968 3.436.774 6.824-.145-2.275 0-5.47-1.79-9.147-4.404a17.07 17.07 0 0 1-.92-2.275c2.662 1.597 4.21 1.5 7.26.34-2.42-1.017-4.646-2.372-6.776-3.92.726.048 1.549.048 2.468.048-2.37-.968-3.097-1.598-4.404-3.63.533.097 1.114.242 1.743.339-.242-.194-.484-.34-.678-.533 1.742.823 3.291.726 5.275.194-1.984 0-5.372-2.178-9.243-5.033-.29-.63-.533-1.307-.726-2.033 1.839 1.355 3.92 1.84 6.146 1.694-5.42-2.807-9.389-8.905-14.083-13.357-5.71 5.469-12.39 12.873-15.293 12.825 2.081.726 3.581.629 5.662-1.355-.532 1.161-.967 1.984-1.355 2.613-2.516 2.081-5.178 3.92-8.13 5.178 2.807.145 5.372-.339 7.695-1.694-.29.968-.775 1.888-1.355 2.71-3.581 2.517-6.727 4.21-8.76 4.21 3.05.824 3.727.92 5.662.678-2.177 3.727-1.887 3.34-4.307 4.646 1.452.388 2.759.726 4.065.678z"/><path fill="#233f7a" d="M208.167 155.527c-1.645.92-3.388 1.742-5.275 2.516 3.436 1.888 5.71 2.468 8.76 1.113-.533.436-1.21.872-1.985 1.404.968.048 1.888.048 2.71 0-.629 1.742-2.129 3.726-5.855 6.582 3.968 0 7.114.822 10.84-3.533.194 4.888-.048 5.42-3.194 9.872 3.823-.435 6.243-1.548 7.937-3.387v12.63h8.566v-10.888c1.839.726 3.968 1.113 6.194 1.694-2.516-4.017-3.049-5.953-2.661-8.76 3.339 4.84 6.388 4.307 12.776 4.21-3.436-2.322-5.033-4.21-5.13-7.5 4.55 4.113 6.098 3.968 10.55 2.516-4.307-1.79-4.307-3.34-4.936-5.807 1.113 1.21 4.162.967 8.324-.146-2.807 0-6.63-2.13-11.18-5.372-.387-.774-.725-1.645-1.064-2.71 3.242 1.888 5.081 1.84 8.856.388-3-1.21-5.71-2.856-8.275-4.792.919.097 1.887.097 2.952.097-2.807-1.161-3.727-1.936-5.324-4.404.678.145 1.355.242 2.13.387-.29-.193-.581-.435-.823-.629 2.13 1.017 4.017.871 6.388.242-2.371 0-6.533-2.613-11.18-6.098a10.672 10.672 0 0 1-.87-2.468c2.226 1.646 4.742 2.226 7.452 2.033-6.581-3.388-11.42-10.84-17.131-16.212-6.92 6.63-15.051 15.583-18.584 15.583 2.565.87 4.404.774 6.872-1.646-.63 1.404-1.113 2.372-1.597 3.146-3.049 2.517-6.291 4.791-9.921 6.291 3.436.194 6.582-.387 9.389-2.032-.388 1.161-.92 2.274-1.646 3.29-4.355 3.001-8.179 5.082-10.647 5.082 3.727.968 4.55 1.162 6.872.871-2.613 4.453-2.274 4.065-5.226 5.614 1.79.436 3.339.871 4.936.823z"/><path fill="#233f7a" d="M252.013 150.203c-1.307.726-2.759 1.404-4.307 2.033 2.807 1.549 4.694 2.08 7.162.92-.435.387-.968.725-1.597 1.21.775 0 1.549 0 2.226-.05-.532 1.453-1.742 3.05-4.79 5.421 3.242.049 5.855.726 8.904-2.904.145 4.017-.048 4.501-2.613 8.18 3.145-.388 5.13-1.307 6.533-2.808v10.405h7.017v-9.001c1.5.629 3.291.92 5.13 1.403-2.08-3.29-2.516-4.888-2.226-7.21 2.758 4.016 5.275 3.58 10.55 3.484-2.807-1.936-4.113-3.485-4.21-6.195 3.775 3.388 4.984 3.291 8.662 2.081-3.532-1.452-3.532-2.758-4.065-4.79.92.967 3.485.773 6.872-.098-2.274 0-5.468-1.79-9.195-4.452-.338-.63-.629-1.355-.92-2.226 2.71 1.548 4.211 1.5 7.308.339-2.42-1.017-4.694-2.372-6.823-3.969.774.097 1.597.097 2.468.049-2.323-.92-3.097-1.55-4.356-3.63a14.96 14.96 0 0 0 1.694.339c-.242-.145-.435-.34-.677-.484 1.742.774 3.339.726 5.323.193-2.032 0-5.42-2.177-9.243-5.033a17.048 17.048 0 0 1-.726-2.032c1.839 1.355 3.871 1.839 6.146 1.645-5.42-2.758-9.389-8.905-14.131-13.357-5.663 5.469-12.39 12.873-15.293 12.873 2.08.678 3.63.63 5.662-1.403-.532 1.161-.92 1.984-1.307 2.613-2.516 2.081-5.178 3.968-8.179 5.178 2.807.194 5.42-.29 7.744-1.645a11.831 11.831 0 0 1-1.355 2.71c-3.63 2.468-6.727 4.162-8.76 4.162 3.049.823 3.727.968 5.614.726-2.13 3.678-1.84 3.34-4.307 4.646 1.5.339 2.758.677 4.065.677z"/><path fill="#233f7a" d="M281.534 152.43a52.646 52.646 0 0 1-5.227 2.468c3.436 1.887 5.71 2.516 8.711 1.161-.532.436-1.161.871-1.935 1.404.968 0 1.839 0 2.71-.049-.63 1.742-2.13 3.727-5.856 6.63 3.968 0 7.114.823 10.84-3.58.194 4.887-.048 5.468-3.194 9.92 3.824-.435 6.195-1.597 7.937-3.388v12.632h8.566V168.69c1.79.775 3.92 1.113 6.195 1.694-2.517-3.968-3.05-5.904-2.71-8.76 3.339 4.888 6.436 4.356 12.776 4.26-3.388-2.324-4.985-4.211-5.082-7.55 4.55 4.113 6.05 4.016 10.55 2.565-4.355-1.791-4.355-3.388-4.936-5.808 1.113 1.162 4.162.92 8.276-.145-2.759 0-6.582-2.178-11.131-5.372-.387-.774-.726-1.694-1.113-2.758 3.29 1.887 5.13 1.839 8.856.435-2.952-1.21-5.662-2.903-8.275-4.79.919.047 1.935.096 3 .047-2.807-1.161-3.726-1.887-5.323-4.403.677.145 1.355.29 2.08.387-.241-.194-.532-.387-.774-.581 2.081.968 4.017.871 6.388.242-2.42 0-6.533-2.662-11.179-6.146-.387-.775-.677-1.597-.92-2.42 2.275 1.645 4.743 2.226 7.453 1.984-6.581-3.387-11.372-10.792-17.083-16.212-6.92 6.63-15.05 15.631-18.584 15.631 2.517.823 4.404.726 6.872-1.693-.629 1.403-1.113 2.42-1.597 3.145-3.049 2.565-6.291 4.84-9.92 6.292 3.435.242 6.581-.34 9.388-1.985a12.05 12.05 0 0 1-1.645 3.243c-4.404 3.049-8.18 5.13-10.647 5.13 3.678.968 4.549 1.113 6.823.823-2.565 4.5-2.226 4.065-5.226 5.662 1.839.435 3.387.822 4.936.822zM36.655 168.545c-1.162.58-2.323 1.21-3.678 1.742 2.42 1.307 4.016 1.743 6.097.775-.387.29-.822.629-1.355.968.678.048 1.307.048 1.888 0-.436 1.21-1.5 2.564-4.114 4.597 2.807 0 4.985.58 7.598-2.468.145 3.388-.048 3.775-2.226 6.92 2.662-.338 4.307-1.113 5.517-2.371v8.808h5.953v-7.646c1.306.532 2.758.822 4.355 1.21-1.742-2.808-2.13-4.163-1.887-6.147 2.323 3.436 4.452 3.05 8.905 3-2.372-1.645-3.485-2.951-3.582-5.274 3.194 2.903 4.26 2.807 7.405 1.79-3.05-1.258-3.05-2.371-3.485-4.065.823.823 2.952.678 5.808-.097-1.936 0-4.598-1.5-7.743-3.726-.29-.58-.533-1.162-.775-1.936 2.275 1.355 3.533 1.307 6.146.29-2.032-.822-3.968-1.984-5.759-3.339.63.049 1.307.049 2.081.049-1.984-.823-2.613-1.307-3.726-3.05.484.097.968.194 1.5.243l-.58-.436c1.451.726 2.806.63 4.452.194-1.646 0-4.55-1.84-7.792-4.26-.242-.531-.484-1.112-.629-1.741 1.549 1.161 3.29 1.597 5.227 1.403-4.598-2.323-7.985-7.501-11.954-11.276-4.84 4.598-10.502 10.889-12.97 10.889 1.79.58 3.098.532 4.791-1.162-.435.968-.774 1.646-1.113 2.178-2.13 1.79-4.355 3.34-6.92 4.404 2.371.145 4.597-.29 6.581-1.403-.29.774-.677 1.548-1.161 2.274-3.049 2.081-5.71 3.533-7.453 3.533 2.613.726 3.194.823 4.791.63-1.839 3.097-1.597 2.806-3.63 3.92 1.259.29 2.324.58 3.437.58z"/><path fill="#233f7a" d="M8.005 169.174a52.09 52.09 0 0 1-3.678 1.79c2.371 1.307 3.968 1.695 6.098.775-.388.29-.823.58-1.404.968h1.936c-.484 1.21-1.5 2.565-4.114 4.598 2.759 0 4.985.58 7.55-2.469.145 3.388 0 3.775-2.178 6.873 2.614-.29 4.307-1.065 5.517-2.323v8.76h5.953v-7.599c1.258.532 2.758.774 4.355 1.21-1.79-2.807-2.129-4.162-1.887-6.146 2.323 3.387 4.452 3.049 8.905 3-2.372-1.645-3.485-2.952-3.582-5.275 3.194 2.855 4.26 2.807 7.356 1.79-3-1.257-3-2.37-3.436-4.064.775.822 2.904.677 5.808-.097-1.936 0-4.646-1.5-7.792-3.775-.29-.532-.532-1.161-.774-1.887 2.274 1.306 3.581 1.258 6.194.29-2.08-.871-3.968-2.033-5.759-3.34.63.05 1.307.05 2.081.05-1.984-.824-2.613-1.356-3.726-3.098l1.452.29a5.143 5.143 0 0 1-.532-.435c1.451.677 2.806.629 4.452.193-1.694 0-4.55-1.839-7.792-4.259a7.504 7.504 0 0 1-.629-1.742c1.549 1.162 3.291 1.549 5.178 1.404-4.597-2.372-7.936-7.55-11.905-11.325-4.84 4.646-10.502 10.938-12.97 10.89 1.743.628 3.05.531 4.791-1.162-.435 1.016-.774 1.693-1.113 2.226-2.129 1.742-4.404 3.34-6.92 4.404 2.371.145 4.597-.29 6.533-1.404a7.795 7.795 0 0 1-1.161 2.275c-3.05 2.08-5.663 3.533-7.405 3.533 2.565.677 3.194.822 4.791.58-1.839 3.146-1.597 2.856-3.678 3.969 1.259.29 2.372.58 3.485.532z"/></g><g fill-rule="evenodd"><path fill="#1d3363" d="M3.504 236.83H.068v-26.568h3.436z"/><path fill="#36569b" d="M.94 187.322c-.291.194-.582.436-.872.63v33.876c2.565 2.759 6.437 3.194 10.647 4.259-2.952-4.646-3.533-6.92-3.146-10.212 3.92 5.663 7.501 5.034 14.906 4.937-3.968-2.71-5.807-4.937-5.953-8.76 5.324 4.791 7.114 4.646 12.293 2.952-5.033-2.08-5.033-3.92-5.76-6.775 1.307 1.404 4.889 1.113 9.68-.194-6.679.049-18.73-10.792-31.796-20.713z"/><path fill="#3e62b0" d="M.068 177.45c9.534 7.259 17.664 17.132 28.747 21.632-4.404 1.694-6.534 1.743-10.357-.484 1.597 4.84 3.146 6.534 8.711 9.825-7.259-.968-10.211.048-14.083-4.501-.193 5.081-1.258 6.533 3.098 11.324-7.211-2.758-10.647-4.597-12.68-10.066-.532 3.05-1.79 5.275-3.436 6.92v-34.65z"/><path fill="#4d6fc1" d="M.068 201.067c1.887 1.742 4.162 2.952 6.388 3.532-2.71-3.774-4.21-7.694-3.194-12.147 3.049 4.453 7.114 7.163 12.873 7.066-3.097-2.13-5.565-4.888-5.904-10.018 4.114 3.727 7.21 4.162 12.39 4.114-3.92-1.646-4.695-2.565-7.309-7.066 3.63 2.807 6.34 2.904 10.115 1.936-4.888 0-15.68-9.147-25.359-16.696v29.279z"/><path fill="#6480ca" d="M.068 161.915c6.63 6.291 12.244 14.954 19.939 18.922-3.146.242-6.098-.435-8.711-2.37 1.113 4.21 3.726 7.645 7.598 10.452-4.985-.822-8.18-1.887-10.84-5.855-.146 4.452.241 7.646 3.242 11.76-4.937-2.372-7.598-6.292-9.002-11.034-.339 2.661-1.161 4.887-2.226 6.726v-28.601z"/><path fill="#1d3363" d="M33.896 199.276h11.518v30.634H33.896z"/><path fill="#36569b" d="M42.414 172.755c-12.438 9.39-20.036 18.052-34.41 23.956 5.18 2.855 8.47 3.533 13.358.678-.339 3.097-1.452 6.146-8.47 11.566 5.324.048 9.583 1.113 14.568-4.743.29 6.582-.049 7.308-4.26 13.309 9.244-1.065 12.39-5.227 15.003-12.244 1.743 10.211 8.18 10.357 15.535 12.292-3.387-5.42-4.113-8.033-3.63-11.856 4.501 6.581 8.615 5.855 17.18 5.759-4.597-3.146-6.726-5.711-6.871-10.163 6.146 5.565 8.178 5.371 14.228 3.436-5.856-2.42-5.856-4.55-6.679-7.84 1.5 1.645 5.663 1.306 11.18-.194-7.695.048-21.585-12.438-36.732-23.956z"/><path fill="#3e62b0" d="M41.107 161.189c11.18 8.372 20.616 19.89 33.49 25.165-5.034 1.936-7.55 2.033-11.906-.532 1.84 5.566 3.581 7.55 10.018 11.325-8.372-1.114-11.808.048-16.26-5.227-.243 5.904-1.453 7.55 3.532 13.115-8.275-3.242-12.244-5.323-14.567-11.615-1.597 9.147-8.856 11.712-15.438 13.454 3.63-4.985 4.84-7.26 3.436-13.163-4.017 5.904-8.614 6.533-16.309 6.388 4.114-2.807 5.42-3.582 5.904-10.405-5.517 4.984-9.34 3.823-14.567 2.516 3.969-2.08 3.533-1.548 7.018-7.55-3.098.388-4.26.146-9.195-1.16 6.92 0 21.293-12.003 34.844-22.311z"/><path fill="#4d6fc1" d="M39.171 153.107c-9.679 7.308-17.858 17.277-28.988 21.826 4.549.339 8.807-.484 12.63-2.71-1.596 4.84-5.468 8.808-11.033 12.05 7.259-.967 11.905-2.177 15.776-6.726.194 5.081-.387 8.76-4.742 13.55 7.162-2.758 11.034-7.26 13.066-12.728 1.355 7.937 7.211 12.873 12.922 14.325-3.146-4.307-4.888-8.856-3.678-13.986 3.484 5.13 8.179 8.276 14.857 8.179-3.581-2.468-6.436-5.662-6.872-11.567 4.791 4.308 8.42 4.791 14.373 4.695-4.549-1.84-5.42-2.904-8.469-8.13 4.21 3.242 7.356 3.387 11.663 2.226-6 .048-19.793-12.05-31.505-21.004z"/><path fill="#6480ca" d="M41.446 143.476c7.646 7.26 14.131 17.277 22.987 21.827-3.63.29-7.017-.484-10.017-2.71 1.258 4.839 4.307 8.759 8.71 12.05-5.758-.968-9.388-2.178-12.485-6.775-.145 5.13.29 8.807 3.775 13.599-5.71-2.759-8.76-7.308-10.405-12.728-1.065 7.936-5.71 12.824-10.26 14.325 2.517-4.308 3.872-8.905 2.952-13.987-2.807 5.082-6.533 8.228-11.808 8.13 2.855-2.419 5.13-5.661 5.42-11.566-3.775 4.308-6.63 4.84-11.373 4.743 3.581-1.887 4.307-2.952 6.727-8.13-3.34 3.242-5.856 3.387-9.243 2.226 4.742 0 15.68-12.05 25.02-21.004z"/><path fill="#1d3363" d="M576.018 236.83h-6.533v-26.568h6.533z"/><path fill="#36569b" d="M576.018 187.952c-10.26 7.888-16.841 15.147-28.94 20.083 4.5 2.469 7.356 3.05 11.566.581-.242 2.71-1.258 5.324-7.307 10.066 4.597 0 8.275.968 12.63-4.162.194 5.711-.096 6.34-3.726 11.567 8.034-.968 10.744-4.55 13.019-10.647.484 3 1.452 4.985 2.758 6.388v-33.876z"/><path fill="#3e62b0" d="m575.776 177.256.242.194v34.65c-2.662 2.614-6.388 3.824-9.92 4.743 3.193-4.307 4.21-6.291 3-11.372-3.485 5.081-7.453 5.613-14.132 5.517 3.582-2.42 4.695-3.098 5.13-9.002-4.79 4.307-8.082 3.29-12.63 2.178 3.435-1.84 3.048-1.355 6.097-6.582-2.71.339-3.678.145-7.985-.968 6 0 18.438-10.405 30.198-19.358z"/><path fill="#4d6fc1" d="M574.082 170.287c-8.372 6.292-15.486 14.954-25.117 18.923 3.969.242 7.647-.436 10.938-2.372-1.404 4.21-4.695 7.598-9.534 10.454 6.291-.871 10.308-1.888 13.647-5.856.194 4.404-.339 7.598-4.113 11.76 6.243-2.42 9.582-6.291 11.324-11.034.678 3.775 2.468 6.775 4.791 8.905v-29.28c-.629-.483-1.306-1.016-1.936-1.5z"/><path fill="#6480ca" d="M576.018 190.516c-1.742 3-4.21 4.888-6.63 5.711 2.178-3.726 3.388-7.695 2.565-12.099-2.42 4.404-5.662 7.114-10.211 7.018 2.42-2.081 4.404-4.888 4.694-10.018-3.29 3.726-5.76 4.21-9.873 4.113 3.098-1.597 3.727-2.565 5.808-7.065-2.856 2.807-5.033 2.952-7.985 1.935 4.113.049 13.55-10.453 21.632-18.196v28.601z"/><path fill="#1d3363" d="M80.84 200.486h11.517v30.634H80.84z"/><path fill="#36569b" d="M89.405 173.965c-12.437 9.34-20.035 18.052-34.409 23.907 5.179 2.856 8.47 3.533 13.357.678-.338 3.146-1.5 6.146-8.469 11.615 5.324 0 9.583 1.113 14.567-4.791.29 6.581-.097 7.356-4.258 13.308 9.243-1.064 12.389-5.178 15.002-12.244 1.742 10.26 8.179 10.405 15.535 12.293-3.436-5.372-4.114-7.985-3.63-11.809 4.5 6.582 8.615 5.856 17.18 5.711-4.597-3.146-6.726-5.662-6.872-10.115 6.147 5.517 8.18 5.372 14.18 3.388-5.807-2.371-5.807-4.5-6.63-7.792 1.5 1.598 5.614 1.259 11.18-.193-7.696 0-21.633-12.486-36.733-23.956z"/><path fill="#3e62b0" d="M88.099 162.35c11.179 8.421 20.616 19.94 33.49 25.214-5.082 1.936-7.55 1.985-11.954-.58 1.887 5.613 3.63 7.55 10.066 11.324-8.373-1.113-11.809.097-16.261-5.178-.242 5.904-1.5 7.55 3.533 13.066-8.276-3.194-12.244-5.323-14.567-11.614-1.597 9.146-8.856 11.76-15.438 13.453 3.63-4.984 4.79-7.259 3.436-13.115-4.065 5.856-8.614 6.485-16.31 6.389 4.114-2.807 5.421-3.63 5.905-10.454-5.566 4.985-9.34 3.823-14.567 2.565 3.968-2.13 3.484-1.548 7.017-7.598-3.097.387-4.258.194-9.243-1.161 6.92.048 21.342-12.002 34.893-22.31z"/><path fill="#4d6fc1" d="M86.114 154.317c-9.63 7.26-17.809 17.277-28.988 21.826 4.597.29 8.856-.484 12.68-2.71-1.646 4.84-5.47 8.76-11.035 12.05 7.26-.968 11.857-2.177 15.777-6.775.194 5.13-.387 8.808-4.743 13.6 7.163-2.76 11.034-7.309 13.067-12.729a17.784 17.784 0 0 0 12.922 14.325c-3.146-4.307-4.888-8.905-3.679-13.986 3.485 5.081 8.18 8.227 14.858 8.13-3.581-2.42-6.485-5.662-6.872-11.566 4.79 4.307 8.372 4.84 14.373 4.743-4.55-1.888-5.469-2.953-8.47-8.13 4.211 3.242 7.357 3.387 11.664 2.225-6 0-19.793-12.098-31.554-21.003z"/><path fill="#6480ca" d="M88.39 144.638c7.694 7.308 14.179 17.277 23.035 21.874-3.678.29-7.017-.532-10.018-2.758 1.259 4.84 4.308 8.808 8.711 12.05-5.759-.968-9.437-2.129-12.485-6.727-.194 5.13.29 8.808 3.774 13.6-5.71-2.807-8.808-7.308-10.405-12.777-1.064 7.937-5.71 12.873-10.26 14.373 2.517-4.355 3.872-8.904 2.904-13.986-2.758 5.082-6.485 8.227-11.76 8.13 2.856-2.467 5.13-5.662 5.42-11.566-3.774 4.307-6.63 4.791-11.372 4.695 3.581-1.84 4.307-2.904 6.727-8.13-3.34 3.242-5.856 3.387-9.292 2.225 4.79.049 15.728-12.05 25.02-21.003z"/><g><path fill="#1d3363" d="M120.91 178.853h9.728v25.94h-9.727z"/><path fill="#36569b" d="M128.17 156.398c-10.55 7.937-16.987 15.293-29.134 20.277 4.356 2.42 7.162 3 11.276.581-.242 2.662-1.258 5.178-7.162 9.824 4.5 0 8.13.92 12.34-4.065.242 5.566-.048 6.195-3.63 11.276 7.84-.92 10.502-4.404 12.729-10.356 1.5 8.662 6.92 8.76 13.163 10.405-2.904-4.55-3.484-6.776-3.097-10.018 3.823 5.565 7.307 4.936 14.567 4.84-3.872-2.662-5.663-4.792-5.808-8.567 5.179 4.695 6.92 4.55 12.002 2.904-4.936-2.032-4.936-3.871-5.614-6.63 1.259 1.355 4.792 1.065 9.486-.194-6.533.049-18.342-10.55-31.118-20.277z"/><path fill="#3e62b0" d="M127.057 146.574c9.437 7.114 17.47 16.89 28.36 21.342-4.308 1.645-6.389 1.694-10.115-.484 1.597 4.743 3.049 6.437 8.517 9.582-7.114-.92-9.97.097-13.792-4.355-.194 4.984-1.21 6.388 3 11.082-7.017-2.758-10.356-4.549-12.34-9.872-1.356 7.743-7.502 9.969-13.067 11.42 3.097-4.21 4.065-6.145 2.903-11.13-3.436 4.985-7.307 5.517-13.792 5.42 3.484-2.42 4.597-3.049 4.985-8.856-4.695 4.21-7.937 3.242-12.341 2.178 3.387-1.791 3-1.355 5.952-6.437-2.613.339-3.58.145-7.791-.968 5.856 0 18.051-10.163 29.52-18.922z"/><path fill="#4d6fc1" d="M125.411 139.75c-8.227 6.195-15.147 14.615-24.584 18.487 3.92.29 7.5-.387 10.695-2.275-1.355 4.066-4.598 7.405-9.292 10.163 6.146-.774 10.018-1.79 13.309-5.662.193 4.307-.29 7.405-4.017 11.47 6.098-2.323 9.389-6.146 11.082-10.792 1.162 6.727 6.147 10.889 10.986 12.147-2.71-3.63-4.162-7.501-3.146-11.857 2.953 4.356 6.92 6.969 12.583 6.92-3.049-2.08-5.468-4.79-5.807-9.824 4.065 3.678 7.114 4.114 12.147 4.017-3.823-1.549-4.598-2.468-7.163-6.872 3.582 2.758 6.243 2.855 9.873 1.887-5.081 0-16.745-10.211-26.666-17.809z"/><path fill="#6480ca" d="M127.299 131.571c6.485 6.195 12.002 14.664 19.503 18.487-3.097.29-5.953-.387-8.518-2.274 1.114 4.065 3.678 7.452 7.405 10.21-4.84-.822-7.985-1.838-10.599-5.71-.096 4.307.29 7.405 3.194 11.47-4.79-2.323-7.404-6.146-8.76-10.792-.919 6.727-4.887 10.889-8.71 12.147 2.13-3.63 3.29-7.501 2.468-11.808-2.323 4.307-5.469 6.969-9.97 6.872 2.42-2.081 4.356-4.791 4.598-9.776-3.194 3.63-5.614 4.065-9.63 3.968 3.048-1.548 3.63-2.468 5.71-6.872-2.855 2.759-4.985 2.856-7.888 1.888 4.065 0 13.308-10.212 21.197-17.81z"/></g><g><path fill="#1d3363" d="M166.208 195.162h12.002v31.941h-12.002z"/><path fill="#36569b" d="M175.113 167.48c-12.97 9.776-20.907 18.826-35.86 24.972 5.42 2.952 8.807 3.678 13.937.678-.339 3.29-1.549 6.436-8.856 12.099 5.565.048 10.018 1.161 15.196-4.985.29 6.872-.049 7.646-4.452 13.89 9.679-1.114 12.921-5.421 15.68-12.729 1.79 10.647 8.469 10.792 16.164 12.777-3.533-5.614-4.26-8.324-3.775-12.341 4.694 6.872 8.953 6.098 17.906 6-4.791-3.29-6.969-5.952-7.163-10.598 6.437 5.808 8.518 5.614 14.81 3.582-6.05-2.517-6.098-4.695-6.921-8.13 1.548 1.645 5.856 1.306 11.663-.243-8.034.049-22.552-12.97-38.329-24.972z"/><path fill="#3e62b0" d="M173.758 155.382c11.663 8.76 21.487 20.81 34.893 26.278-5.227 2.033-7.84 2.081-12.39-.58 1.937 5.807 3.727 7.888 10.454 11.808-8.76-1.162-12.292.097-16.987-5.42-.242 6.146-1.5 7.888 3.727 13.647-8.663-3.34-12.776-5.565-15.196-12.099-1.646 9.534-9.244 12.244-16.116 14.035 3.823-5.227 5.033-7.55 3.581-13.696-4.21 6.098-8.953 6.775-16.986 6.678 4.307-2.952 5.662-3.774 6.146-10.888-5.76 5.178-9.727 3.968-15.196 2.613 4.162-2.178 3.678-1.597 7.308-7.888-3.195.387-4.404.193-9.583-1.21 7.211.048 22.214-12.535 36.345-23.278z"/><path fill="#4d6fc1" d="M171.725 147.01c-10.066 7.597-18.583 18.002-30.246 22.745 4.79.339 9.243-.484 13.211-2.807-1.693 5.033-5.662 9.147-11.518 12.534 7.598-1.016 12.39-2.226 16.455-7.017.193 5.324-.436 9.147-4.937 14.18 7.453-2.904 11.518-7.647 13.6-13.309 1.451 8.276 7.549 13.406 13.502 14.954-3.291-4.5-5.082-9.243-3.824-14.567 3.63 5.275 8.518 8.566 15.438 8.47-3.726-2.565-6.678-5.905-7.114-12.05 4.985 4.5 8.76 5.032 14.954 4.935-4.694-1.935-5.662-3.048-8.807-8.517 4.355 3.388 7.646 3.533 12.147 2.323-6.243.048-20.617-12.583-32.86-21.875z"/><path fill="#6480ca" d="M174.097 136.943c7.985 7.598 14.76 18.003 24.004 22.746-3.823.339-7.356-.484-10.502-2.807 1.355 5.033 4.5 9.147 9.147 12.534-6.001-.968-9.824-2.226-13.067-7.017-.145 5.323.339 9.147 3.92 14.18-5.904-2.904-9.098-7.598-10.792-13.309-1.162 8.276-6.001 13.405-10.695 14.954 2.565-4.5 4.016-9.243 3.049-14.567-2.904 5.324-6.776 8.566-12.293 8.47 2.952-2.566 5.324-5.905 5.662-12.051-3.968 4.5-6.92 5.033-11.905 4.936 3.775-1.936 4.5-3.049 7.017-8.517-3.484 3.387-6.049 3.533-9.63 2.371 4.936 0 16.357-12.583 26.085-21.923z"/></g><g><path fill="#1d3363" d="M224.476 193.372h14.131v37.651h-14.13z"/><path fill="#36569b" d="M234.978 160.753c-15.293 11.518-24.682 22.165-42.297 29.425 6.388 3.484 10.404 4.307 16.405.822-.387 3.824-1.79 7.55-10.404 14.229 6.533.048 11.76 1.403 17.906-5.856.338 8.082-.097 9.001-5.227 16.357 11.373-1.306 15.196-6.388 18.439-15.05 2.129 12.582 10.017 12.776 19.067 15.099-4.162-6.63-5.033-9.825-4.452-14.519 5.517 8.082 10.598 7.211 21.149 7.066-5.663-3.872-8.276-7.017-8.47-12.486 7.55 6.824 10.067 6.582 17.471 4.21-7.162-2.952-7.162-5.565-8.179-9.63 1.84 1.984 6.92 1.597 13.744-.242-9.485.048-26.568-15.293-45.152-29.425z"/><path fill="#3e62b0" d="M233.38 146.477c13.697 10.308 25.311 24.488 41.137 30.973-6.195 2.371-9.244 2.468-14.664-.678 2.275 6.872 4.452 9.292 12.34 13.89-10.26-1.355-14.47.145-19.986-6.34-.29 7.21-1.791 9.292 4.403 16.067-10.21-3.92-15.099-6.533-17.954-14.277-1.936 11.228-10.889 14.422-18.971 16.552 4.452-6.147 5.904-8.905 4.21-16.164-4.984 7.21-10.598 7.985-20.035 7.84 5.033-3.436 6.678-4.404 7.21-12.777-6.775 6.098-11.469 4.646-17.857 3.098 4.888-2.614 4.307-1.936 8.614-9.34-3.823.483-5.226.241-11.324-1.404 8.517.048 26.23-14.76 42.878-27.44z"/><path fill="#4d6fc1" d="M230.961 136.604c-11.905 8.905-21.923 21.197-35.667 26.811 5.662.387 10.889-.58 15.535-3.34-1.936 5.954-6.63 10.793-13.503 14.81 8.905-1.162 14.567-2.662 19.359-8.276.241 6.292-.484 10.792-5.856 16.697 8.856-3.436 13.599-8.954 16.115-15.68 1.646 9.775 8.857 15.825 15.874 17.615-3.872-5.275-6.001-10.889-4.5-17.18 4.258 6.291 10.017 10.115 18.244 10.018-4.404-3-7.937-6.969-8.42-14.228 5.855 5.323 10.307 5.952 17.615 5.807-5.565-2.274-6.678-3.581-10.405-10.018 5.178 4.017 9.05 4.162 14.374 2.759-7.405.048-24.343-14.809-38.765-25.795z"/><path fill="#6480ca" d="M233.72 124.747c9.437 8.905 17.422 21.198 28.31 26.811-4.5.388-8.614-.58-12.34-3.339 1.597 5.953 5.323 10.792 10.744 14.809-7.066-1.161-11.567-2.662-15.342-8.276-.242 6.292.34 10.793 4.598 16.697-7.017-3.436-10.792-8.953-12.776-15.68-1.307 9.776-7.018 15.777-12.583 17.616 3.049-5.275 4.743-10.89 3.581-17.18-3.387 6.29-7.985 10.114-14.47 10.017 3.484-3 6.291-6.969 6.679-14.228-4.695 5.323-8.18 5.904-14.035 5.807 4.452-2.274 5.323-3.58 8.276-10.017-4.114 4.016-7.163 4.162-11.373 2.758 5.855.048 19.31-14.809 30.73-25.795z"/></g><g><path fill="#1d3363" d="M273.162 189.742h11.42v30.44h-11.42z"/><path fill="#36569b" d="M281.63 163.367c-12.34 9.292-19.89 17.954-34.166 23.81 5.13 2.807 8.42 3.485 13.26.63-.29 3.145-1.452 6.145-8.42 11.517 5.274.049 9.533 1.113 14.518-4.694.242 6.533-.097 7.26-4.259 13.212 9.195-1.065 12.292-5.178 14.906-12.147 1.742 10.114 8.13 10.26 15.438 12.195-3.388-5.372-4.065-7.985-3.63-11.76 4.453 6.534 8.566 5.808 17.084 5.71-4.55-3.145-6.679-5.661-6.824-10.114 6.098 5.517 8.13 5.372 14.131 3.388-5.807-2.371-5.807-4.452-6.63-7.743 1.5 1.597 5.614 1.258 11.131-.194-7.695.049-21.487-12.389-36.538-23.81z"/><path fill="#3e62b0" d="M280.372 151.849c11.083 8.324 20.472 19.793 33.248 25.02-5.033 1.936-7.501 2.033-11.857-.532 1.84 5.517 3.581 7.5 9.97 11.227-8.276-1.064-11.712.097-16.164-5.13-.194 5.856-1.452 7.502 3.58 12.97-8.275-3.145-12.195-5.275-14.518-11.518-1.548 9.099-8.808 11.664-15.341 13.357 3.63-4.936 4.791-7.21 3.388-13.066-3.969 5.856-8.566 6.485-16.164 6.388 4.065-2.807 5.372-3.581 5.855-10.357-5.517 4.937-9.291 3.775-14.47 2.517 3.92-2.13 3.485-1.549 6.97-7.55-3.098.387-4.211.194-9.147-1.161 6.872.048 21.148-11.905 34.65-22.165z"/><path fill="#4d6fc1" d="M278.388 143.864c-9.582 7.21-17.712 17.131-28.795 21.68 4.55.29 8.808-.483 12.583-2.71-1.597 4.792-5.42 8.712-10.937 11.954 7.162-.92 11.76-2.13 15.631-6.678.194 5.081-.387 8.71-4.694 13.502 7.114-2.759 10.937-7.26 12.97-12.68 1.355 7.889 7.162 12.777 12.873 14.277-3.146-4.307-4.888-8.857-3.678-13.938 3.484 5.081 8.13 8.227 14.76 8.13-3.532-2.468-6.388-5.613-6.823-11.518 4.79 4.307 8.324 4.791 14.276 4.695-4.5-1.84-5.42-2.904-8.42-8.082 4.21 3.242 7.307 3.387 11.614 2.226-5.952 0-19.648-12.002-31.36-20.858z"/><path fill="#6480ca" d="M280.663 134.233c7.598 7.26 14.083 17.18 22.842 21.73-3.58.29-6.969-.485-9.92-2.71 1.258 4.79 4.258 8.71 8.662 11.953-5.71-.92-9.389-2.13-12.437-6.679-.146 5.082.338 8.711 3.774 13.503-5.71-2.759-8.76-7.26-10.356-12.68-1.065 7.888-5.662 12.776-10.212 14.228 2.517-4.259 3.872-8.808 2.953-13.89-2.759 5.082-6.485 8.18-11.712 8.131 2.807-2.468 5.081-5.662 5.372-11.518-3.775 4.307-6.582 4.791-11.325 4.694 3.582-1.839 4.307-2.903 6.679-8.082-3.291 3.243-5.76 3.34-9.195 2.227 4.742 0 15.583-12.002 24.875-20.907z"/></g><g><path fill="#1d3363" d="M305.49 189.5h10.404v27.73H305.49z"/><path fill="#36569b" d="M313.233 165.496c-11.276 8.47-18.148 16.31-31.118 21.633 4.694 2.565 7.646 3.194 12.05.629-.29 2.807-1.307 5.565-7.646 10.453 4.79.049 8.662 1.017 13.163-4.307.242 5.953-.048 6.63-3.823 12.05 8.372-.967 11.18-4.694 13.55-11.082 1.598 9.243 7.405 9.389 14.035 11.13-3.049-4.887-3.678-7.258-3.29-10.694 4.064 5.952 7.84 5.275 15.582 5.178-4.162-2.855-6.097-5.178-6.243-9.195 5.566 5.033 7.405 4.888 12.874 3.097-5.275-2.178-5.275-4.065-6.05-7.066 1.404 1.452 5.13 1.162 10.163-.193-7.017.048-19.551-11.228-33.247-21.633z"/><path fill="#3e62b0" d="M312.071 154.994c10.066 7.598 18.632 18.003 30.247 22.795-4.549 1.742-6.823 1.79-10.792-.484 1.694 5.033 3.291 6.823 9.098 10.211-7.55-1.016-10.647.097-14.712-4.694-.193 5.323-1.306 6.823 3.243 11.856-7.55-2.903-11.083-4.84-13.212-10.55-1.452 8.324-7.985 10.647-13.986 12.196 3.29-4.5 4.355-6.582 3.097-11.905-3.63 5.323-7.792 5.904-14.712 5.807 3.726-2.565 4.888-3.29 5.323-9.437-4.984 4.5-8.469 3.436-13.163 2.275 3.581-1.888 3.146-1.404 6.34-6.824-2.807.339-3.824.145-8.324-1.065 6.243.049 19.26-10.84 31.553-20.18z"/><path fill="#4d6fc1" d="M310.28 147.687c-8.759 6.582-16.163 15.631-26.23 19.745 4.162.29 7.986-.436 11.422-2.42-1.452 4.356-4.888 7.937-9.97 10.89 6.582-.872 10.744-1.985 14.277-6.099.194 4.598-.339 7.937-4.307 12.293 6.533-2.517 10.018-6.63 11.857-11.567 1.21 7.211 6.533 11.663 11.711 12.97-2.855-3.871-4.452-8.033-3.388-12.631 3.195 4.598 7.405 7.453 13.454 7.356-3.242-2.178-5.807-5.081-6.194-10.453 4.355 3.92 7.598 4.355 12.97 4.259-4.066-1.646-4.888-2.614-7.647-7.357 3.823 2.953 6.63 3.098 10.55 2.033-5.42 0-17.906-10.937-28.504-19.02z"/><path fill="#6480ca" d="M312.313 138.976c6.97 6.581 12.825 15.631 20.81 19.745-3.29.29-6.34-.436-9.05-2.468 1.162 4.404 3.872 7.985 7.889 10.889-5.179-.823-8.518-1.936-11.325-6.05-.145 4.598.29 7.937 3.436 12.244-5.178-2.516-7.937-6.582-9.388-11.518-.968 7.163-5.179 11.615-9.292 12.97 2.274-3.92 3.533-8.034 2.661-12.631-2.516 4.597-5.904 7.453-10.695 7.356 2.565-2.226 4.646-5.13 4.936-10.453-3.436 3.871-6 4.355-10.308 4.258 3.243-1.693 3.92-2.661 6.098-7.356-3.049 2.952-5.275 3.05-8.372 2.033 4.307 0 14.18-10.937 22.6-19.02z"/></g><g><path fill="#1d3363" d="M350.255 188.193h14.615v38.959h-14.615z"/><path fill="#36569b" d="M361.096 154.51c-15.777 11.906-25.456 22.94-43.701 30.393 6.581 3.63 10.743 4.5 16.938.87-.387 3.97-1.839 7.792-10.744 14.713 6.776.048 12.196 1.452 18.536-6.05.338 8.373-.097 9.292-5.42 16.939 11.76-1.404 15.728-6.63 19.067-15.583 2.226 13.018 10.357 13.163 19.697 15.631-4.307-6.872-5.178-10.163-4.598-15.05 5.71 8.372 10.938 7.452 21.827 7.307-5.808-4.017-8.518-7.26-8.712-12.873 7.792 7.017 10.405 6.824 18.052 4.307-7.405-3.049-7.405-5.71-8.47-9.921 1.936 2.033 7.163 1.645 14.229-.242-9.824.048-27.489-15.825-46.701-30.44z"/><path fill="#3e62b0" d="M359.45 139.75c14.18 10.695 26.182 25.359 42.54 32.038-6.437 2.42-9.583 2.564-15.148-.726 2.371 7.114 4.597 9.63 12.728 14.373-10.599-1.404-14.954.145-20.617-6.582-.338 7.501-1.887 9.63 4.501 16.648-10.55-4.065-15.583-6.775-18.535-14.76-2.033 11.614-11.228 14.905-19.6 17.083 4.597-6.34 6.098-9.195 4.355-16.696-5.13 7.501-10.937 8.275-20.713 8.13 5.227-3.581 6.872-4.597 7.453-13.26-7.017 6.34-11.857 4.84-18.487 3.242 5.033-2.71 4.452-1.984 8.905-9.63-3.92.484-5.372.193-11.663-1.452 8.76 0 27.052-15.293 44.281-28.408z"/><path fill="#4d6fc1" d="M356.982 129.539c-12.292 9.243-22.697 21.923-36.877 27.73 5.856.387 11.228-.63 16.067-3.436-2.033 6.146-6.872 11.13-13.986 15.293 9.243-1.21 15.1-2.759 20.035-8.566.242 6.485-.484 11.18-6.049 17.277 9.147-3.533 14.035-9.292 16.648-16.212 1.694 10.066 9.147 16.309 16.406 18.196-4.017-5.469-6.195-11.276-4.694-17.76 4.452 6.484 10.405 10.5 18.874 10.356-4.55-3.098-8.18-7.163-8.663-14.712 6.05 5.517 10.598 6.146 18.196 6-5.759-2.322-6.92-3.677-10.743-10.308 5.323 4.114 9.34 4.308 14.809 2.856-7.598 0-25.117-15.342-40.023-26.714z"/><path fill="#6480ca" d="M359.837 117.295c9.776 9.243 18.003 21.923 29.23 27.73-4.597.387-8.904-.63-12.727-3.436 1.597 6.098 5.469 11.13 11.082 15.293-7.307-1.21-11.953-2.759-15.873-8.566-.194 6.485.387 11.18 4.791 17.229-7.26-3.533-11.13-9.244-13.212-16.164-1.355 10.066-7.26 16.309-13.018 18.196 3.145-5.468 4.936-11.276 3.726-17.76-3.533 6.484-8.275 10.453-15.002 10.356 3.63-3.098 6.533-7.211 6.92-14.712-4.84 5.468-8.469 6.146-14.47 6 4.55-2.37 5.469-3.726 8.518-10.356-4.21 4.162-7.405 4.307-11.76 2.855 6.049.049 19.938-15.34 31.795-26.665z"/></g><g><path fill="#1d3363" d="M402.667 204.938h11.228v29.957h-11.228z"/><path fill="#36569b" d="M411.04 178.998c-12.196 9.147-19.6 17.665-33.635 23.375 5.081 2.807 8.275 3.485 13.018.678-.29 3.049-1.403 6-8.276 11.324 5.227.049 9.389 1.113 14.277-4.646.242 6.437-.097 7.163-4.21 13.019 9.05-1.065 12.147-5.082 14.712-11.954 1.694 9.97 7.985 10.115 15.196 12.002-3.34-5.275-4.017-7.84-3.582-11.566 4.404 6.436 8.421 5.71 16.842 5.613-4.5-3.097-6.582-5.565-6.775-9.92 6.05 5.42 8.033 5.226 13.937 3.339-5.71-2.372-5.71-4.404-6.533-7.647 1.5 1.549 5.517 1.259 10.937-.193-7.5.048-21.1-12.196-35.909-23.424z"/><path fill="#3e62b0" d="M409.781 167.626c10.889 8.227 20.132 19.503 32.715 24.681-4.936 1.887-7.356 1.936-11.663-.58 1.839 5.468 3.533 7.404 9.824 11.082-8.179-1.065-11.518.097-15.922-5.082-.193 5.76-1.403 7.405 3.485 12.825-8.082-3.146-11.954-5.227-14.277-11.373-1.5 8.953-8.614 11.47-15.1 13.164 3.582-4.888 4.743-7.114 3.388-12.873-3.968 5.759-8.42 6.388-15.97 6.29 4.065-2.758 5.323-3.532 5.759-10.21-5.372 4.84-9.098 3.726-14.228 2.468 3.871-2.081 3.436-1.5 6.872-7.405-3 .387-4.162.145-9.002-1.113 6.776 0 20.859-11.76 34.119-21.874z"/><path fill="#4d6fc1" d="M407.845 159.786c-9.437 7.114-17.47 16.89-28.36 21.342 4.501.29 8.663-.484 12.341-2.662-1.548 4.743-5.275 8.566-10.743 11.76 7.114-.92 11.615-2.08 15.39-6.582.193 4.985-.388 8.615-4.647 13.309 7.066-2.759 10.84-7.162 12.825-12.486 1.307 7.743 7.066 12.583 12.631 14.035-3.049-4.21-4.79-8.711-3.581-13.696 3.388 4.985 7.985 8.082 14.519 7.985-3.533-2.42-6.34-5.517-6.727-11.324 4.694 4.21 8.227 4.694 14.034 4.597-4.404-1.79-5.323-2.855-8.275-7.937 4.113 3.194 7.21 3.291 11.42 2.178-5.855.048-19.357-11.808-30.827-20.52z"/><path fill="#6480ca" d="M410.071 150.349c7.502 7.114 13.841 16.89 22.504 21.342-3.581.29-6.872-.484-9.824-2.662 1.258 4.743 4.21 8.614 8.566 11.76-5.662-.92-9.244-2.081-12.244-6.582-.145 4.985.29 8.615 3.678 13.309-5.566-2.759-8.566-7.163-10.163-12.486-1.065 7.743-5.566 12.583-10.018 14.035 2.42-4.21 3.775-8.712 2.855-13.696-2.71 4.984-6.34 8.082-11.518 7.985 2.759-2.42 4.985-5.517 5.324-11.324-3.727 4.21-6.533 4.694-11.18 4.597 3.533-1.79 4.26-2.855 6.582-7.937-3.242 3.194-5.71 3.291-9.05 2.178 4.646.048 15.342-11.808 24.488-20.52z"/></g><g><path fill="#1d3363" d="M443.803 218.295h9.146v24.343h-9.146z"/><path fill="#36569b" d="M450.578 197.195c-9.873 7.453-15.922 14.325-27.343 19.02 4.113 2.274 6.727 2.806 10.598.532-.242 2.468-1.161 4.888-6.727 9.195 4.21.048 7.598.92 11.615-3.775.194 5.227-.097 5.807-3.436 10.598 7.356-.87 9.873-4.162 11.954-9.727 1.403 8.13 6.485 8.227 12.34 9.727-2.71-4.258-3.242-6.34-2.903-9.388 3.581 5.226 6.872 4.646 13.696 4.549-3.678-2.468-5.372-4.5-5.469-8.034 4.888 4.404 6.485 4.259 11.276 2.71-4.597-1.887-4.646-3.58-5.275-6.243 1.21 1.307 4.452 1.065 8.905-.145-6.146.049-17.18-9.872-29.23-19.019z"/><path fill="#3e62b0" d="M449.562 187.952c8.856 6.678 16.357 15.873 26.617 20.035-4.017 1.549-6 1.597-9.485-.435 1.452 4.452 2.855 6 7.985 9.001-6.679-.871-9.389.048-12.97-4.114-.145 4.646-1.162 6.001 2.855 10.405-6.581-2.565-9.727-4.258-11.615-9.243-1.258 7.26-7.017 9.34-12.244 10.695 2.856-3.968 3.824-5.759 2.71-10.453-3.193 4.694-6.872 5.178-12.97 5.081 3.292-2.226 4.308-2.855 4.695-8.275-4.404 3.92-7.404 3-11.566 1.984 3.145-1.645 2.807-1.21 5.565-6.001-2.468.29-3.34.145-7.308-.92 5.469 0 16.939-9.533 27.73-17.76z"/><path fill="#4d6fc1" d="M447.965 181.563c-7.647 5.76-14.18 13.745-23.036 17.374 3.678.194 7.017-.435 10.066-2.178-1.307 3.824-4.307 6.97-8.76 9.583 5.76-.775 9.437-1.743 12.535-5.372.145 4.065-.34 6.969-3.775 10.792 5.71-2.178 8.76-5.808 10.405-10.115 1.064 6.292 5.71 10.212 10.26 11.373-2.517-3.436-3.872-7.066-2.953-11.082 2.807 4.016 6.534 6.533 11.809 6.436-2.807-1.936-5.082-4.5-5.42-9.195 3.823 3.436 6.678 3.872 11.42 3.775-3.629-1.5-4.355-2.323-6.726-6.485 3.34 2.613 5.807 2.71 9.243 1.79-4.742 0-15.728-9.582-25.068-16.696z"/><path fill="#6480ca" d="M449.804 173.869c6.098 5.807 11.227 13.744 18.293 17.373-2.904.242-5.614-.387-7.985-2.177 1.016 3.871 3.436 7.017 6.92 9.582-4.549-.726-7.452-1.694-9.92-5.324-.146 4.066.241 6.97 3 10.792-4.55-2.226-6.969-5.807-8.276-10.163-.822 6.34-4.549 10.212-8.13 11.422 1.984-3.436 3.097-7.066 2.323-11.131-2.226 4.065-5.178 6.533-9.389 6.485 2.275-1.936 4.065-4.5 4.307-9.195-3 3.436-5.275 3.823-9.05 3.726 2.856-1.452 3.437-2.323 5.372-6.436-2.661 2.565-4.646 2.661-7.356 1.79 3.775 0 12.438-9.63 19.89-16.744z"/></g><g><path fill="#1d3363" d="M486.245 214.085h10.115v26.956h-10.115z"/><path fill="#36569b" d="M493.795 190.758c-10.937 8.228-17.664 15.874-30.295 21.052 4.597 2.517 7.452 3.098 11.76.581-.29 2.759-1.307 5.42-7.453 10.211 4.694.049 8.42 1.017 12.824-4.162.242 5.76-.048 6.437-3.774 11.712 8.178-.968 10.937-4.597 13.211-10.792 1.55 9.001 7.211 9.147 13.696 10.792-3-4.743-3.63-7.017-3.194-10.405 3.92 5.808 7.55 5.178 15.1 5.082-4.017-2.807-5.905-5.034-6.05-8.954 5.42 4.888 7.211 4.743 12.534 3.001-5.13-2.081-5.178-3.968-5.855-6.872 1.306 1.403 4.936 1.113 9.824-.145-6.775 0-19.02-10.986-32.328-21.1z"/><path fill="#3e62b0" d="M492.633 180.547c9.825 7.405 18.149 17.52 29.473 22.165-4.452 1.694-6.63 1.79-10.502-.484 1.646 4.936 3.194 6.679 8.857 9.97-7.405-.968-10.405.096-14.325-4.55-.194 5.179-1.307 6.63 3.145 11.518-7.307-2.855-10.792-4.694-12.873-10.26-1.355 8.083-7.743 10.357-13.55 11.857 3.194-4.404 4.21-6.388 3-11.566-3.533 5.178-7.598 5.71-14.325 5.614 3.581-2.468 4.743-3.146 5.178-9.147-4.887 4.356-8.227 3.34-12.824 2.226 3.484-1.887 3.097-1.355 6.194-6.678-2.758.339-3.726.145-8.13-1.017 6.098.049 18.777-10.55 30.682-19.648z"/><path fill="#4d6fc1" d="M490.94 173.481c-8.518 6.389-15.729 15.196-25.553 19.213 4.065.242 7.792-.435 11.13-2.42-1.403 4.26-4.79 7.744-9.678 10.599 6.388-.823 10.453-1.887 13.84-5.904.194 4.5-.338 7.695-4.161 11.953 6.34-2.468 9.727-6.436 11.518-11.227 1.21 6.969 6.34 11.324 11.373 12.63-2.759-3.822-4.307-7.84-3.243-12.34 3.098 4.5 7.211 7.26 13.067 7.163-3.146-2.13-5.662-4.937-6.001-10.163 4.21 3.774 7.356 4.258 12.631 4.162-4.017-1.646-4.791-2.565-7.453-7.163 3.678 2.855 6.437 3 10.26 1.984-5.275 0-17.422-10.647-27.73-18.487z"/><path fill="#6480ca" d="M492.924 164.964c6.727 6.436 12.437 15.196 20.229 19.213-3.194.29-6.146-.436-8.808-2.372 1.113 4.26 3.775 7.744 7.695 10.599-5.082-.871-8.324-1.936-11.034-5.953-.145 4.501.29 7.743 3.339 11.954-5.033-2.42-7.743-6.388-9.147-11.228-.968 7.017-5.033 11.325-9.05 12.631 2.227-3.775 3.437-7.791 2.614-12.292-2.468 4.5-5.71 7.26-10.405 7.162 2.516-2.129 4.5-4.984 4.791-10.163-3.34 3.775-5.856 4.21-10.018 4.114 3.146-1.597 3.823-2.565 5.904-7.162-2.952 2.903-5.13 3-8.13 1.984 4.162.048 13.793-10.599 22.02-18.487z"/></g><g><path fill="#1d3363" d="M528.881 209.342h10.115v26.956H528.88z"/><path fill="#36569b" d="M536.431 185.967c-10.986 8.276-17.664 15.922-30.295 21.052 4.549 2.517 7.453 3.146 11.76.63-.29 2.758-1.307 5.42-7.453 10.21 4.646 0 8.42.969 12.825-4.21.242 5.76-.097 6.437-3.775 11.712 8.13-.968 10.889-4.598 13.212-10.792 1.548 9.001 7.162 9.146 13.647 10.84-2.952-4.742-3.581-7.065-3.194-10.405 3.968 5.76 7.598 5.13 15.148 5.033-4.066-2.758-5.905-5.033-6.05-8.904 5.42 4.84 7.211 4.694 12.486 3-5.13-2.13-5.13-4.017-5.856-6.92 1.355 1.452 4.985 1.161 9.873-.145-6.824 0-19.02-10.986-32.328-21.1z"/><path fill="#3e62b0" d="M535.27 175.756c9.824 7.404 18.148 17.567 29.472 22.213-4.452 1.694-6.63 1.743-10.502-.484 1.646 4.888 3.146 6.63 8.808 9.921-7.356-.968-10.356.097-14.276-4.549-.242 5.178-1.307 6.63 3.097 11.518-7.308-2.855-10.744-4.694-12.825-10.26-1.403 8.082-7.791 10.357-13.599 11.857 3.194-4.355 4.26-6.388 3.05-11.566-3.582 5.178-7.599 5.759-14.374 5.662 3.63-2.516 4.791-3.194 5.178-9.195-4.84 4.356-8.179 3.34-12.776 2.226 3.484-1.839 3.097-1.355 6.146-6.678-2.71.338-3.726.145-8.082-1.017 6.098.049 18.729-10.55 30.683-19.648z"/><path fill="#4d6fc1" d="M533.527 168.69c-8.517 6.388-15.68 15.196-25.504 19.213 4.017.242 7.792-.435 11.13-2.371-1.403 4.21-4.79 7.695-9.678 10.55 6.388-.823 10.453-1.888 13.84-5.904.195 4.5-.338 7.743-4.161 11.953 6.34-2.468 9.727-6.436 11.518-11.227a15.568 15.568 0 0 0 11.373 12.63c-2.759-3.822-4.307-7.84-3.243-12.292 3.05 4.453 7.211 7.211 13.067 7.163-3.146-2.178-5.662-4.985-6.05-10.212 4.211 3.824 7.405 4.26 12.632 4.162-3.969-1.645-4.791-2.564-7.453-7.162 3.726 2.855 6.485 3 10.26 1.984-5.275 0-17.374-10.647-27.73-18.487z"/><path fill="#6480ca" d="M535.511 160.221c6.776 6.388 12.486 15.196 20.278 19.213-3.194.242-6.195-.436-8.856-2.42 1.161 4.259 3.823 7.743 7.695 10.599-5.034-.823-8.276-1.888-10.986-5.904-.145 4.452.29 7.694 3.29 11.905-4.984-2.42-7.694-6.388-9.098-11.18-.967 6.97-5.033 11.277-9.05 12.583 2.227-3.775 3.437-7.791 2.565-12.292-2.42 4.5-5.71 7.26-10.356 7.162 2.517-2.13 4.5-4.984 4.791-10.163-3.34 3.775-5.856 4.26-10.018 4.162 3.146-1.645 3.775-2.565 5.904-7.162-2.952 2.855-5.13 2.952-8.13 1.936 4.162.048 13.793-10.599 21.971-18.439z"/></g><path fill="#274687" d="M.068 286h575.95v-54.493c-206.647 25.553-379.95-71.963-575.95 0V286z"/><path fill="#36569b" d="M576.018 237.315v-5.808c-206.647 25.553-379.95-71.963-575.95 0v5.808c196-71.964 369.303 25.552 575.95 0z"/></g></svg>