<svg width="70" height="61" viewBox="0 0 70 61" xmlns="http://www.w3.org/2000/svg" xmlns:xlink="http://www.w3.org/1999/xlink">
    <g id="Group">
        <g id="g1381">
            <path id="rect1383" fill="#ffe7ad" fill-rule="evenodd" stroke="none" d="M 35.569298 34.848526 L 35.569298 34.848526 C 37.956047 36.40976 39.415794 38.401688 38.829735 39.297623 L 38.829735 39.297623 C 38.243683 40.193558 35.833748 39.654221 33.446999 38.092987 L 33.446999 38.092987 C 31.060257 36.531754 29.600502 34.539825 30.186562 33.64389 L 30.186562 33.64389 C 30.772614 32.747955 33.182549 33.287277 35.569298 34.848526 Z"/>
            <path id="path1385" fill="#ffd26b" fill-rule="evenodd" stroke="none" d="M 39.0616 38.782867 C 39.0616 39.013992 38.946037 39.129562 38.830475 39.245132 L 38.830475 39.245132 C 38.252647 40.169647 36.981438 40.400772 36.172485 39.822952 L 30.740959 36.356018 C 29.816444 35.778198 29.585312 34.506989 30.163139 33.698029 L 30.163139 33.698029 C 30.278702 33.466904 30.394264 33.351334 30.509827 33.235779 C 30.278702 34.044724 30.625397 34.853668 31.318779 35.431503 L 36.750313 38.898438 C 37.443695 39.360687 38.48378 39.360687 39.0616 38.782867 Z"/>
            <path id="rect1387" fill="#fff8e9" fill-rule="evenodd" stroke="none" d="M 35.25573 35.063904 L 35.25573 35.063904 C 37.003059 36.206879 38.300293 37.315765 38.153175 37.540665 L 38.153175 37.540665 C 38.006065 37.765564 36.470314 37.021317 34.722984 35.878342 L 34.722984 35.878342 C 32.975655 34.735367 31.678421 33.62648 31.825531 33.401581 L 31.825531 33.401581 C 31.972649 33.176682 33.5084 33.920929 35.25573 35.063904 Z"/>
        </g>
        <g id="g1389">
            <path id="rect1391" fill="#00ccff" fill-rule="evenodd" stroke="none" d="M 28.647949 31.386734 L 28.647949 31.386734 C 31.576782 31.386734 33.951073 33.750534 33.951073 36.666428 L 33.951073 36.666428 C 33.951073 39.582321 31.576782 41.946121 28.647949 41.946121 L 28.647949 41.946121 C 25.719124 41.946121 23.344833 39.582321 23.344833 36.666428 L 23.344833 36.666428 C 23.344833 33.750534 25.719124 31.386734 28.647949 31.386734 Z"/>
            <path id="path1393" fill="#0094ba" fill-rule="evenodd" stroke="none" d="M 28.660797 31.386734 L 28.660797 31.386734 C 30.509827 31.386734 32.127731 32.311264 33.052246 33.698029 C 32.243294 34.044724 30.856522 34.275848 29.354187 34.275848 C 27.042892 34.275848 25.193863 33.813599 24.847168 33.004639 C 25.771683 31.964569 27.158463 31.386734 28.660797 31.386734 Z"/>
        </g>
        <g id="g1395">
            <path id="rect1397" fill="#ffe7ad" fill-rule="evenodd" stroke="none" d="M 28.706963 34.848526 L 28.706963 34.848526 C 31.093712 36.40976 32.553459 38.401688 31.9674 39.297623 L 31.9674 39.297623 C 31.381348 40.193558 28.971413 39.654221 26.584671 38.092987 L 26.584671 38.092987 C 24.197922 36.531754 22.738174 34.539825 23.324226 33.64389 L 23.324226 33.64389 C 23.910278 32.747955 26.320213 33.287277 28.706963 34.848526 Z"/>
            <path id="path1399" fill="#ffd26b" fill-rule="evenodd" stroke="none" d="M 32.243294 38.782867 C 32.127731 39.013992 32.127731 39.129562 32.012169 39.245132 L 32.012169 39.245132 C 31.434341 40.169647 30.163139 40.400772 29.238617 39.822952 L 23.922653 36.356018 C 22.998138 35.778198 22.767006 34.506989 23.344833 33.698029 L 23.344833 33.698029 C 23.460396 33.466904 23.575958 33.351334 23.691521 33.235779 C 23.460396 34.044724 23.807091 34.853668 24.500473 35.431503 L 29.932007 38.898438 C 30.625397 39.360687 31.549911 39.360687 32.243294 38.782867 Z"/>
            <path id="rect1401" fill="#fff8e9" fill-rule="evenodd" stroke="none" d="M 28.393394 35.063904 L 28.393394 35.063904 C 30.140724 36.206879 31.437958 37.315765 31.29084 37.540665 L 31.29084 37.540665 C 31.14373 37.765564 29.607979 37.021317 27.860649 35.878342 L 27.860649 35.878342 C 26.113319 34.735367 24.816086 33.62648 24.963196 33.401581 L 24.963196 33.401581 C 25.110313 33.176682 26.646065 33.920929 28.393394 35.063904 Z"/>
        </g>
        <g id="g1403">
            <path id="path1405" fill="#ce0000" fill-rule="evenodd" stroke="none" d="M 62.521194 48.143585 L 64.948044 48.49028 L 64.948044 53.228424 L 6.125725 53.228424 L 4.161125 51.957214 L 4.50782 49.414795 L 6.47242 48.374725 C 9.014832 29.537704 61.943375 35.547058 62.521194 48.143585 Z"/>
            <path id="rect1407" fill="#990000" fill-rule="evenodd" stroke="none" d="M 29.585312 43.752136 L 42.95681 43.752136 C 44.105652 43.752136 45.036972 44.345398 45.036972 45.077225 L 45.036972 45.077225 C 45.036972 45.809036 44.105652 46.402283 42.95681 46.402283 L 29.585312 46.402283 C 28.436478 46.402283 27.50515 45.809036 27.50515 45.077225 L 27.50515 45.077225 C 27.50515 44.345398 28.436478 43.752136 29.585312 43.752136 Z"/>
            <path id="rect1409" fill="#990000" fill-rule="evenodd" stroke="none" d="M 29.585312 47.681335 L 42.95681 47.681335 C 44.105652 47.681335 45.036972 48.274582 45.036972 49.006409 L 45.036972 49.006409 C 45.036972 49.73822 44.105652 50.331482 42.95681 50.331482 L 29.585312 50.331482 C 28.436478 50.331482 27.50515 49.73822 27.50515 49.006409 L 27.50515 49.006409 C 27.50515 48.274582 28.436478 47.681335 29.585312 47.681335 Z"/>
            <path id="path1411" fill="#ff2b2b" fill-rule="evenodd" stroke="none" d="M 62.521194 48.143585 L 64.948044 48.49028 L 64.948044 50.57045 L 62.521194 50.33931 C 61.943375 37.742783 9.014832 31.733429 6.47242 50.57045 L 4.50782 51.494965 L 4.392258 52.188354 L 4.161125 51.957214 L 4.50782 49.414795 L 6.47242 48.374725 C 9.014832 29.537704 61.943375 35.547058 62.521194 48.143585 Z"/>
            <path id="path1413" fill="#990000" fill-rule="evenodd" stroke="none" d="M 18.722252 37.858353 C 20.455719 37.396088 22.420319 37.049408 24.500473 36.818268 C 29.238617 37.280533 33.861198 37.280533 38.599342 36.702713 C 40.332809 36.933838 42.066277 37.164963 43.799744 37.511658 C 43.799744 37.511658 43.799744 37.627228 43.799744 37.627228 L 43.799744 37.627228 C 43.799744 38.551743 43.106361 38.898438 42.412971 39.129562 C 35.016846 42.018677 27.50515 41.787552 19.993462 39.129562 C 19.415642 38.898438 18.722252 38.551743 18.722252 37.858353 Z"/>
            <path id="path1415" fill="#ec0000" fill-rule="evenodd" stroke="none" d="M 62.636749 53.228424 L 38.830475 53.228424 C 38.714905 52.766174 38.714905 52.419479 38.714905 51.957214 C 38.714905 38.205048 64.254654 36.933838 62.636749 53.228424 Z"/>
            <path id="path1417" fill="#ec0000" fill-rule="evenodd" stroke="none" d="M 26.811768 53.228424 L 26.580635 53.228424 L 6.125725 53.228424 L 4.161125 52.072784 L 4.161125 51.957214 L 4.161125 51.84166 L 4.50782 49.645935 C 4.50782 49.530365 4.50782 49.414795 4.50782 49.29924 L 6.47242 48.374725 C 7.05024 43.636581 11.672821 41.556412 17.104347 41.556412 C 23.344833 41.556412 26.92733 48.836975 26.92733 51.957214 L 26.92733 53.228424 L 26.811768 53.228424 C 26.811768 53.112869 26.811768 53.112869 26.811768 53.228424 Z"/>
            <path id="path1419" fill="#7c0000" fill-rule="evenodd" stroke="none" d="M 55.702881 53.228424 L 40.101685 53.228424 C 40.101685 52.766174 39.986115 52.419479 39.986115 52.072784 C 39.986115 48.02803 43.568619 44.676651 47.960068 44.676651 C 52.235947 44.676651 55.818451 48.02803 55.818451 52.072784 C 55.818451 52.419479 55.702881 52.766174 55.702881 53.228424 Z"/>
            <path id="path1421" fill="#7c0000" fill-rule="evenodd" stroke="none" d="M 26.118378 53.228424 L 10.517174 53.228424 C 10.401611 52.766174 10.401611 52.419479 10.401611 52.072784 C 10.401611 48.02803 13.868546 44.676651 18.259995 44.676651 C 22.651443 44.676651 26.118378 48.02803 26.118378 52.072784 C 26.118378 52.419479 26.118378 52.766174 26.118378 53.228424 Z"/>
            <g id="g1423">
                <path id="path1425" fill="#ffcc00" fill-rule="evenodd" stroke="none" d="M 6.241287 47.91246 L 11.672821 47.91246 C 10.863869 49.0681 10.401611 50.57045 10.401611 52.072784 C 10.401611 52.535034 10.401611 52.997299 10.517174 53.575119 L 6.241287 53.575119 C 4.50782 53.575119 3.23661 52.303909 3.23661 50.801575 L 3.23661 50.801575 C 3.23661 49.18367 4.50782 47.91246 6.241287 47.91246 Z"/>
                <path id="path1427" fill="#ff9933" fill-rule="evenodd" stroke="none" d="M 6.241287 52.188354 C 5.432335 52.188354 4.738953 51.957214 4.276688 51.494965 C 3.81443 51.14827 3.467743 50.686005 3.23661 50.108185 C 3.23661 50.33931 3.23661 50.57045 3.23661 50.801575 C 3.23661 52.303909 4.50782 53.575119 6.241287 53.575119 L 10.517174 53.575119 C 10.517174 53.459564 10.517174 53.343994 10.517174 53.228424 C 10.401611 52.881729 10.401611 52.535034 10.401611 52.188354 L 6.241287 52.188354 Z"/>
                <path id="path1429" fill="#ffff00" fill-rule="evenodd" stroke="none" d="M 6.241287 47.91246 L 11.672821 47.91246 C 11.557251 48.143585 11.441689 48.374725 11.326126 48.49028 L 6.241287 48.49028 C 4.623383 48.49028 3.352173 49.645935 3.23661 51.0327 C 3.23661 50.917145 3.23661 50.801575 3.23661 50.801575 L 3.23661 50.801575 C 3.23661 49.18367 4.50782 47.91246 6.241287 47.91246 Z"/>
            </g>
            <g id="g1431">
                <path id="path1433" fill="#ffcc00" fill-rule="evenodd" stroke="none" d="M 63.907959 47.91246 L 54.431671 47.91246 C 55.356186 49.0681 55.818451 51.0327 55.818451 52.072784 C 55.818451 52.997299 55.702881 52.997299 55.587326 53.575119 L 63.907959 53.575119 C 65.525864 53.575119 66.912643 52.303909 66.912643 50.801575 L 66.912643 50.801575 C 66.912643 49.18367 65.525864 47.91246 63.907959 47.91246 Z"/>
                <path id="path1435" fill="#ff9933" fill-rule="evenodd" stroke="none" d="M 63.907959 52.188354 C 64.716919 52.188354 65.410309 51.957214 65.872559 51.494965 C 66.334824 51.14827 66.681519 50.686005 66.797073 50.108185 C 66.912643 50.33931 66.912643 50.57045 66.912643 50.801575 C 66.912643 52.303909 65.525864 53.575119 63.907959 53.575119 L 55.587326 53.575119 C 55.702881 53.459564 55.702881 53.343994 55.702881 53.228424 C 55.702881 52.881729 55.818451 52.535034 55.818451 52.188354 L 63.907959 52.188354 Z"/>
                <path id="path1437" fill="#ffff00" fill-rule="evenodd" stroke="none" d="M 63.907959 47.91246 L 54.431671 47.91246 C 54.547241 48.143585 54.778366 48.374725 54.893936 48.49028 L 63.907959 48.49028 C 65.410309 48.49028 66.797073 49.645935 66.912643 51.0327 C 66.912643 50.917145 66.912643 50.801575 66.912643 50.801575 L 66.912643 50.801575 C 66.912643 49.18367 65.525864 47.91246 63.907959 47.91246 Z"/>
            </g>
            <path id="path1439" fill="#ff2b2b" fill-rule="evenodd" stroke="none" d="M 45.302086 43.058746 C 50.618042 41.325287 57.205231 42.827621 59.51651 47.91246 L 61.48111 47.91246 C 59.285385 41.671982 51.080307 40.285202 45.302086 43.058746 Z"/>
            <path id="path1441" fill="#ff2b2b" fill-rule="evenodd" stroke="none" d="M 21.842491 43.405441 C 16.873222 41.903107 10.863869 43.174316 8.668144 47.91246 L 6.934677 47.91246 C 9.014832 42.134232 16.526527 40.978592 21.842491 43.405441 Z"/>
            <path id="ellipse1443" fill="#ffffff" fill-rule="evenodd" stroke="none" d="M 52.519348 42.20256 C 52.540436 42.648911 51.832535 43.040161 50.938217 43.076462 C 50.043884 43.112778 49.301788 42.780365 49.280701 42.33403 C 49.259613 41.88768 49.967514 41.496414 50.861847 41.460114 C 51.756165 41.423813 52.49826 41.75621 52.519348 42.20256 Z"/>
            <path id="ellipse1445" fill="#ffffff" fill-rule="evenodd" stroke="none" d="M 48.762756 42.141129 C 48.836334 42.381165 48.506073 42.678436 48.025116 42.805084 C 47.544144 42.931747 47.094597 42.839828 47.021011 42.599777 C 46.947433 42.359741 47.277687 42.062469 47.758652 41.935822 C 48.239624 41.809158 48.689178 41.901077 48.762756 42.141129 Z"/>
            <path id="ellipse1447" fill="#ffffff" fill-rule="evenodd" stroke="none" d="M 65.645874 49.293839 C 65.602325 49.738785 64.844299 50.038727 63.952789 49.963776 C 63.061264 49.888824 62.373825 49.467377 62.417374 49.02243 C 62.460907 48.577484 63.218933 48.277542 64.110458 48.352493 C 65.001984 48.427429 65.689407 48.848892 65.645874 49.293839 Z"/>
            <path id="ellipse1449" fill="#ffffff" fill-rule="evenodd" stroke="none" d="M 62.000076 48.824326 C 61.985901 49.047333 61.612183 49.208313 61.165359 49.183899 C 60.718536 49.15947 60.367828 48.958908 60.382004 48.735916 C 60.396194 48.512909 60.769913 48.351929 61.216736 48.376343 C 61.663544 48.400757 62.014267 48.601334 62.000076 48.824326 Z"/>
            <path id="ellipse1451" fill="#ffffff" fill-rule="evenodd" stroke="none" d="M 4.171257 49.293839 C 4.21479 49.738785 4.972816 50.038727 5.864342 49.963776 C 6.755859 49.888824 7.443291 49.467377 7.39975 49.02243 C 7.356209 48.577484 6.59819 48.277542 5.706665 48.352493 C 4.81514 48.427429 4.127716 48.848892 4.171257 49.293839 Z"/>
            <path id="ellipse1453" fill="#ffffff" fill-rule="evenodd" stroke="none" d="M 7.81739 48.824326 C 7.831573 49.047333 8.205292 49.208313 8.652107 49.183899 C 9.098923 49.15947 9.449646 48.958908 9.435455 48.735916 C 9.421272 48.512909 9.047554 48.351929 8.600739 48.376343 C 8.153923 48.400757 7.8032 48.601334 7.81739 48.824326 Z"/>
            <path id="ellipse1455" fill="#ffffff" fill-rule="evenodd" stroke="none" d="M 10.151703 44.129379 C 10.36058 44.532028 11.183929 44.566971 11.9907 44.207428 C 12.79747 43.84787 13.282158 43.229996 13.07328 42.827347 C 12.864403 42.424713 12.041061 42.389771 11.234283 42.749313 C 10.427513 43.108856 9.942825 43.726746 10.151703 44.129379 Z"/>
            <path id="path1457" fill="#640000" fill-rule="evenodd" stroke="none" d="M 26.118378 52.072784 C 26.118378 48.02803 22.651443 44.676651 18.259995 44.676651 C 15.602013 44.676651 13.175156 45.947861 11.672821 47.91246 C 11.557251 48.143585 11.441689 48.374725 11.326126 48.49028 C 10.748299 49.530365 10.401611 50.801575 10.401611 52.072784 C 10.401611 52.072784 10.401611 52.188354 10.401611 52.188354 C 10.401611 52.535034 10.401611 52.881729 10.517174 53.228424 L 11.788383 53.228424 C 11.788383 52.881729 11.788383 52.650604 11.788383 52.303909 C 11.788383 48.952545 14.677498 46.179001 18.259995 46.179001 C 21.842491 46.179001 24.847168 48.952545 24.847168 52.303909 C 24.847168 52.650604 24.847168 52.881729 24.731606 53.228424 L 26.118378 53.228424 C 26.118378 52.766174 26.118378 52.419479 26.118378 52.072784 Z"/>
            <path id="path1459" fill="#640000" fill-rule="evenodd" stroke="none" d="M 47.960068 44.676651 C 43.568619 44.676651 39.986115 48.02803 39.986115 52.072784 C 39.986115 52.419479 40.101685 52.766174 40.101685 53.228424 L 41.488457 53.228424 C 41.488457 52.881729 41.372894 52.650604 41.372894 52.303909 C 41.372894 48.952545 44.377563 46.179001 47.960068 46.179001 C 51.542572 46.179001 54.431671 48.952545 54.431671 52.303909 C 54.431671 52.650604 54.431671 52.881729 54.431671 53.228424 L 55.702881 53.228424 C 55.702881 52.881729 55.818451 52.535034 55.818451 52.188354 C 55.818451 52.188354 55.818451 52.072784 55.818451 52.072784 C 55.818451 51.0327 55.356186 49.0681 54.431671 47.91246 C 53.044907 45.947861 50.618042 44.676651 47.960068 44.676651 Z"/>
            <g id="g1461">
                <path id="path1463" fill="#ffcc00" fill-rule="evenodd" stroke="none" d="M 19.993462 35.084808 C 27.50515 36.356018 35.016846 36.471573 42.412971 35.084808 C 43.221924 34.969238 43.799744 35.778198 43.799744 36.587143 L 43.799744 36.587143 C 43.799744 37.396088 43.106361 37.858353 42.412971 38.089478 C 35.016846 40.863022 27.50515 40.631897 19.993462 38.089478 C 19.300072 37.858353 18.606689 37.396088 18.606689 36.587143 L 18.606689 36.587143 C 18.606689 35.778198 19.300072 34.969238 19.993462 35.084808 Z"/>
                <path id="path1465" fill="#ff9933" fill-rule="evenodd" stroke="none" d="M 25.887253 38.782867 C 24.153786 38.436172 22.304749 38.089478 20.455719 37.396088 C 20.340157 37.396088 20.224586 37.280533 19.993462 37.280533 C 19.415642 37.049408 18.837814 36.702713 18.722252 36.124878 C 18.722252 36.356018 18.606689 36.471573 18.606689 36.587143 C 18.606689 37.164963 18.953384 37.511658 19.300072 37.742783 C 19.531204 37.858353 19.762329 37.973923 19.993462 38.089478 C 21.149109 38.436172 22.304749 38.782867 23.344833 39.129562 C 28.77636 40.400772 34.207893 40.516342 39.63942 39.013992 C 40.563942 38.782867 41.488457 38.436172 42.412971 38.089478 C 42.875229 37.973923 43.221924 37.742783 43.568619 37.396088 C 43.684181 37.164963 43.799744 36.933838 43.799744 36.587143 C 43.799744 36.471573 43.799744 36.356018 43.684181 36.124878 C 43.568619 36.702713 43.106361 37.049408 42.528534 37.280533 C 42.528534 37.280533 42.412971 37.280533 42.412971 37.280533 C 40.679504 37.973923 38.830475 38.436172 37.097008 38.782867 C 33.398941 39.476257 29.700874 39.476257 25.887253 38.782867 Z"/>
                <path id="path1467" fill="#ffff00" fill-rule="evenodd" stroke="none" d="M 19.993462 35.084808 C 27.50515 36.356018 35.016846 36.471573 42.412971 35.084808 C 43.221924 34.969238 43.799744 35.778198 43.799744 36.587143 L 43.799744 36.587143 C 43.799744 36.702713 43.799744 36.818268 43.799744 36.818268 C 43.684181 36.124878 43.106361 35.547058 42.412971 35.662628 C 35.016846 36.933838 27.50515 36.933838 19.993462 35.662628 C 19.300072 35.547058 18.837814 36.124878 18.722252 36.818268 C 18.722252 36.818268 18.606689 36.702713 18.606689 36.587143 L 18.606689 36.587143 C 18.606689 35.778198 19.300072 34.969238 19.993462 35.084808 Z"/>
                <path id="ellipse1469" fill="#ffffff" fill-rule="evenodd" stroke="none" d="M 43.021812 35.649124 C 43.085358 35.897537 42.702347 36.194412 42.166321 36.312225 C 41.630302 36.430023 41.144249 36.324158 41.080696 36.075745 C 41.017143 35.827332 41.400162 35.530457 41.936188 35.412659 C 42.472206 35.294846 42.95826 35.400726 43.021812 35.649124 Z"/>
                <path id="ellipse1471" fill="#ffffff" fill-rule="evenodd" stroke="none" d="M 40.818649 36.162399 C 40.817657 36.336746 40.511902 36.476578 40.135719 36.474762 C 39.759537 36.472931 39.455376 36.330109 39.456367 36.155777 C 39.457352 35.981445 39.763107 35.841599 40.139297 35.84343 C 40.51548 35.845261 40.819633 35.988068 40.818649 36.162399 Z"/>
                <path id="ellipse1473" fill="#ffffff" fill-rule="evenodd" stroke="none" d="M 21.037636 35.649124 C 21.101181 35.897537 20.71817 36.194412 20.182144 36.312225 C 19.646118 36.430023 19.160072 36.324158 19.096519 36.075745 C 19.032967 35.827332 19.415985 35.530457 19.952003 35.412659 C 20.488029 35.294846 20.974083 35.400726 21.037636 35.649124 Z"/>
            </g>
            <path id="path1475" fill="#ec0000" fill-rule="evenodd" stroke="none" d="M 58.707565 47.450211 L 59.05426 39.822952 C 56.974091 39.707382 54.431671 40.400772 53.507156 42.943192 L 58.707565 47.450211 Z"/>
            <path id="ellipse1477" fill="#ce0000" fill-rule="evenodd" stroke="none" d="M 61.01886 43.636581 C 61.01886 45.742783 60.139267 47.450211 59.05426 47.450211 C 57.969238 47.450211 57.089661 45.742783 57.089661 43.636581 C 57.089661 41.530365 57.969238 39.822952 59.05426 39.822952 C 60.139267 39.822952 61.01886 41.530365 61.01886 43.636581 Z"/>
            <path id="ellipse1479" fill="#e6e6e6" fill-rule="evenodd" stroke="none" d="M 60.90329 43.636581 C 60.90329 45.551315 60.127197 47.103516 59.169815 47.103516 C 58.212448 47.103516 57.436356 45.551315 57.436356 43.636581 C 57.436356 41.721848 58.212448 40.169647 59.169815 40.169647 C 60.127197 40.169647 60.90329 41.721848 60.90329 43.636581 Z"/>
            <path id="path1481" fill="#ffffff" fill-rule="evenodd" stroke="none" d="M 60.441025 45.832306 C 60.32547 46.179001 60.2099 46.410126 60.09433 46.641251 L 58.36087 45.370041 L 58.707565 45.023346 L 60.441025 45.832306 Z"/>
            <path id="path1483" fill="#ffffff" fill-rule="evenodd" stroke="none" d="M 59.285385 41.209717 C 59.978775 41.209717 60.556595 42.018677 60.90329 43.174316 C 60.78772 41.556412 59.978775 40.169647 59.169815 40.169647 C 59.169815 40.169647 59.05426 40.169647 59.05426 40.169647 C 58.47644 40.285202 57.898605 40.978592 57.66748 42.018677 C 57.551926 42.249802 57.551926 42.480927 57.551926 42.712067 C 57.436356 42.943192 57.436356 43.058746 57.436356 43.289886 C 57.436356 43.405441 57.436356 43.521011 57.436356 43.636581 C 57.436356 43.867706 57.436356 43.983276 57.436356 44.098831 C 57.436356 44.445526 57.551926 44.792221 57.551926 45.138916 C 57.551926 44.907791 57.551926 44.792221 57.551926 44.676651 C 57.551926 44.445526 57.551926 44.329956 57.551926 44.214401 C 57.66748 43.867706 57.66748 43.636581 57.66748 43.405441 C 57.783051 43.174316 57.783051 43.058746 57.783051 42.943192 C 57.898605 42.712067 57.898605 42.480927 58.014175 42.249802 C 58.2453 41.787552 58.591995 41.325287 58.93869 41.209717 C 59.05426 41.209717 59.169815 41.209717 59.285385 41.209717 Z"/>
            <path id="ellipse1485" fill="#ffffff" fill-rule="evenodd" stroke="none" d="M 59.05426 43.752136 C 59.05426 44.709518 58.74382 45.485611 58.36087 45.485611 C 57.977921 45.485611 57.66748 44.709518 57.66748 43.752136 C 57.66748 42.794769 57.977921 42.018677 58.36087 42.018677 C 58.74382 42.018677 59.05426 42.794769 59.05426 43.752136 Z"/>
            <path id="path1487" fill="#ff2b2b" fill-rule="evenodd" stroke="none" d="M 55.702881 42.018677 C 55.934021 41.787552 56.280716 41.671982 56.627396 41.440857 C 56.974091 41.325287 57.205231 41.325287 57.551926 41.209717 C 57.898605 40.400772 58.47644 39.822952 59.05426 39.822952 C 57.783051 39.707382 56.280716 39.938507 55.125061 40.747467 C 54.778366 40.978592 54.547241 41.325287 54.200546 41.556412 C 54.200546 41.671982 54.084991 41.903107 53.969421 42.018677 C 53.853851 42.134232 53.853851 42.249802 53.738297 42.365372 C 53.738297 42.480927 53.622726 42.712067 53.507156 42.943192 L 54.200546 43.521011 C 54.316116 43.405441 54.316116 43.289886 54.431671 43.289886 C 54.547241 43.058746 54.662811 42.943192 54.778366 42.712067 C 54.893936 42.596497 55.009506 42.480927 55.240631 42.249802 C 55.356186 42.134232 55.471756 42.018677 55.702881 42.018677 Z"/>
        </g>
        <g id="g1489">
            <g id="g1491">
                <path id="path1493" fill="#ff9966" fill-rule="evenodd" stroke="none" d="M 43.799744 13.820938 C 51.080307 3.65126 23.922653 1.686661 20.455719 31.617874 L 24.153786 27.226425 L 22.882576 30.577789 C 30.625397 26.995285 39.177162 21.563766 43.799744 13.820938 Z"/>
                <path id="path1495" fill="#ffbd9d" fill-rule="evenodd" stroke="none" d="M 45.070953 11.047394 C 45.879906 3.535706 23.575958 4.691345 20.455719 31.617874 L 20.917976 31.040054 C 24.616043 8.158279 42.759666 5.61586 45.070953 11.047394 Z"/>
                <path id="path1497" fill="#ff712b" fill-rule="evenodd" stroke="none" d="M 37.443695 17.634567 C 32.705551 21.794891 27.042892 24.915131 21.842491 27.110855 C 22.073624 25.146255 22.420319 23.297226 22.767006 21.679321 C 21.726929 24.452866 20.917976 27.804245 20.455719 31.617874 L 24.153786 27.226425 L 22.882576 30.577789 C 27.967407 28.266495 33.283379 25.146255 37.674828 21.101501 C 38.599342 20.292557 39.408295 19.483597 40.217247 18.559082 C 40.910629 17.865692 41.604019 17.056747 42.181839 16.247787 C 42.759666 15.438843 43.337486 14.629898 43.799744 13.820938 C 44.493134 12.896423 44.839828 12.087479 44.955391 11.394089 C 45.186516 10.469574 45.070953 9.660614 44.608696 9.082794 C 44.608696 8.967224 44.608696 8.967224 44.493134 8.851669 C 44.493134 8.967224 44.493134 9.082794 44.493134 9.082794 C 44.262001 9.545059 44.030876 9.891754 43.684181 10.354004 C 43.568619 10.700699 43.337486 11.047394 43.106361 11.394089 C 42.875229 11.740784 42.528534 12.203033 42.297409 12.549728 C 41.604019 13.358688 40.910629 14.167633 40.217247 14.976578 C 39.292732 15.901093 38.48378 16.825623 37.443695 17.634567 Z"/>
                <path id="path1499" fill="#ffbd9d" fill-rule="evenodd" stroke="none" d="M 40.563942 9.082794 C 40.910629 10.122879 39.63942 11.625214 37.674828 12.318604 C 35.594666 13.011993 33.745636 12.665298 33.283379 11.625214 C 32.936684 10.469574 34.207893 9.082794 36.172485 8.273849 C 38.252647 7.58046 40.101685 7.927155 40.563942 9.082794 Z"/>
            </g>
            <path id="polygon1501" fill="#007a9c" fill-rule="evenodd" stroke="none" d="M 31.318779 15.438843 L 41.141762 17.750137 L 44.146439 15.669968 L 35.132408 13.936508 L 41.257324 4.806915 L 38.830475 4.46022 Z"/>
            <path id="path1503" fill="#00ccff" fill-rule="evenodd" stroke="none" d="M 44.146439 15.669968 L 41.141762 17.750137 L 38.830475 4.46022 C 39.63942 4.575775 40.448372 4.691345 41.257324 4.806915 L 44.146439 15.669968 Z"/>
            <path id="polygon1505" fill="#00e8fe" fill-rule="evenodd" stroke="none" d="M 38.830475 4.46022 L 39.523857 4.575775 L 41.604019 17.403442 L 41.141762 17.750137 Z"/>
            <g id="g1507">
                <path id="path1509" fill="#ff712b" fill-rule="evenodd" stroke="none" d="M 41.719582 21.794891 C 43.684181 26.64859 43.453049 31.155609 41.257324 35.315933 C 41.372894 30.924484 40.448372 27.226425 39.177162 22.950531 L 41.719582 21.794891 Z"/>
                <g id="g1511">
                    <path id="path1513" fill="#ff9966" fill-rule="evenodd" stroke="none" d="M 42.412971 19.945862 C 44.839828 23.990616 45.302086 27.9198 43.915306 31.848999 C 43.337486 28.03537 42.066277 24.915131 40.448372 21.332626 L 42.412971 19.945862 Z"/>
                    <path id="path1515" fill="#ff712b" fill-rule="evenodd" stroke="none" d="M 44.493134 29.537704 C 43.915306 26.417465 42.875229 23.643921 41.488457 20.639236 L 40.448372 21.332626 C 42.066277 24.915131 43.337486 28.03537 43.915306 31.848999 C 44.146439 31.040054 44.377563 30.346664 44.493134 29.537704 Z"/>
                </g>
                <path id="path1517" fill="#ffe7ad" fill-rule="evenodd" stroke="none" d="M 24.038216 13.127548 L 39.75499 13.127548 C 41.604019 13.127548 42.990791 14.514328 42.990791 16.363358 L 42.990791 29.30658 C 42.990791 32.080124 39.75499 33.466904 37.328133 33.582458 C 34.670151 33.582458 28.545235 32.773514 24.038216 32.542389 C 22.304749 32.426819 20.802414 31.040054 20.802414 29.30658 L 20.802414 16.363358 C 20.802414 14.514328 22.304749 13.127548 24.038216 13.127548 Z"/>
                <path id="path1519" fill="#ffd26b" fill-rule="evenodd" stroke="none" d="M 41.950714 31.617874 C 40.795067 32.889084 38.946037 33.466904 37.328133 33.582458 C 34.670151 33.582458 28.545235 32.773514 24.038216 32.542389 C 22.304749 32.426819 20.802414 31.040054 20.802414 29.30658 L 20.802414 16.363358 C 20.802414 14.745453 21.958054 13.474243 23.344833 13.127548 C 22.998138 13.705368 22.767006 14.283203 22.767006 14.976578 L 22.767006 27.9198 C 22.767006 29.768845 24.269348 31.040054 26.002815 31.155609 C 30.509827 31.386734 35.016846 33.120209 37.674828 33.120209 C 38.48378 33.004639 41.141762 32.080124 41.950714 31.617874 Z"/>
                <g id="g1521">
                    <path id="path1523" fill="#ffe7ad" fill-rule="evenodd" stroke="none" d="M 21.149109 24.337311 C 21.958054 24.337311 22.767006 24.684006 23.344833 25.146255 C 22.882576 26.18634 22.651443 27.688675 22.651443 29.19101 C 22.651443 29.768845 22.651443 30.346664 22.767006 30.924484 C 22.304749 31.155609 21.726929 31.386734 21.149109 31.386734 C 19.184509 31.386734 17.682175 29.768845 17.682175 27.804245 C 17.682175 25.955215 19.184509 24.337311 21.149109 24.337311 Z"/>
                    <path id="path1525" fill="#ffd26b" fill-rule="evenodd" stroke="none" d="M 22.998138 26.30191 C 22.535881 27.34198 22.651443 28.03537 22.651443 29.19101 C 22.651443 30.346664 22.651443 30.346664 22.767006 30.924484 C 22.651443 30.924484 22.535881 30.924484 22.420319 30.924484 C 20.686852 30.924484 19.300072 29.537704 19.300072 27.804245 C 19.300072 25.724075 21.380234 25.261826 22.998138 26.30191 Z"/>
                    <path id="path1527" fill="#fff8e9" fill-rule="evenodd" stroke="none" d="M 17.9133 28.266495 C 17.9133 26.30191 19.415642 24.684006 21.380234 24.684006 C 22.073624 24.684006 22.767006 24.915131 23.344833 25.261826 C 23.344833 25.261826 23.344833 25.146255 23.344833 25.146255 C 22.767006 24.684006 21.958054 24.337311 21.149109 24.337311 C 19.184509 24.337311 17.682175 25.955215 17.682175 27.804245 C 17.682175 28.497635 17.9133 29.19101 18.144432 29.653275 C 18.028862 29.19101 17.9133 28.72876 17.9133 28.266495 Z"/>
                </g>
                <path id="path1529" fill="#fff8e9" fill-rule="evenodd" stroke="none" d="M 36.056923 29.19101 C 36.056923 29.19101 36.403618 27.9198 37.097008 27.804245 C 37.443695 27.804245 38.137085 28.497635 38.137085 29.075455 C 38.021523 28.266495 36.056923 29.19101 36.056923 29.19101 Z"/>
                <g id="g1531">
                    <path id="circle1533" fill="#ffffff" fill-rule="evenodd" stroke="none" d="M 33.393822 28.016205 C 33.222641 29.292938 32.048874 30.189148 30.772141 30.01796 C 29.495415 29.846771 28.599197 28.673004 28.770386 27.396286 C 28.941574 26.119553 30.115334 25.223343 31.392067 25.394516 C 32.668793 25.565704 33.56501 26.739471 33.393822 28.016205 Z"/>
                    <path id="circle1535" fill="#506aa3" fill-rule="evenodd" stroke="none" d="M 33.142021 28.304993 C 32.9972 29.385086 32.004211 30.143265 30.924126 29.998444 C 29.844032 29.853622 29.085846 28.860641 29.230667 27.780548 C 29.375488 26.700455 30.368469 25.942261 31.448563 26.087082 C 32.528656 26.231903 33.286842 27.224899 33.142021 28.304993 Z"/>
                    <path id="path1537" fill="#3a4b74" fill-rule="evenodd" stroke="none" d="M 31.434341 26.18634 C 32.474426 26.30191 33.167809 27.226425 33.052246 28.266495 C 32.821121 29.30658 32.127731 28.03537 31.087654 27.9198 C 30.047569 27.804245 29.238617 28.844315 29.354187 27.804245 C 29.469749 26.76416 30.394264 26.07077 31.434341 26.18634 Z"/>
                    <path id="circle1539" fill="#000000" fill-rule="evenodd" stroke="none" d="M 32.163963 28.173584 C 32.091591 28.713379 31.595322 29.0923 31.055527 29.019928 C 30.515724 28.947556 30.13681 28.451279 30.209183 27.911484 C 30.281563 27.371689 30.777824 26.992767 31.317627 27.06514 C 31.857422 27.137527 32.236343 27.633789 32.163963 28.173584 Z"/>
                    <path id="circle1541" fill="#ffffff" fill-rule="evenodd" stroke="none" d="M 31.695496 26.928177 C 31.615631 27.523773 31.068069 27.941849 30.472473 27.862 C 29.876884 27.782135 29.458794 27.234573 29.538651 26.638977 C 29.618515 26.043381 30.166077 25.625305 30.761665 25.705154 C 31.357262 25.785019 31.775352 26.332581 31.695496 26.928177 Z"/>
                    <path id="circle1543" fill="#ffffff" fill-rule="evenodd" stroke="none" d="M 32.468475 29.073059 C 32.438774 29.294571 32.235138 29.450058 32.013634 29.420349 C 31.79213 29.390656 31.636642 29.187012 31.666336 28.965515 C 31.696037 28.744003 31.899681 28.588516 32.121185 28.618225 C 32.34269 28.647919 32.498177 28.851563 32.468475 29.073059 Z"/>
                    <path id="path1545" fill="#000000" fill-rule="evenodd" stroke="none" d="M 29.700874 25.839645 C 29.123055 26.30191 28.660797 26.87973 28.660797 27.688675 C 28.545235 28.382065 28.660797 28.959885 29.007492 29.42215 C 28.545235 28.844315 28.19854 28.15094 28.314102 27.34198 C 28.429665 26.64859 28.77636 26.18634 29.123055 25.724075 L 29.700874 25.839645 Z"/>
                    <path id="path1547" fill="#000000" fill-rule="evenodd" stroke="none" d="M 29.123055 25.724075 C 29.123055 25.955215 29.354187 25.955215 29.354187 26.18634 C 31.434341 25.261826 33.283379 25.955215 33.630074 28.497635 C 34.092331 25.608521 31.318779 24.106171 29.123055 25.724075 Z"/>
                    <path id="path1549" fill="#000000" fill-rule="evenodd" stroke="none" d="M 28.89193 26.76416 L 29.238617 25.724075 C 28.545235 25.955215 28.082977 25.49295 27.736282 24.799561 C 27.967407 25.955215 28.19854 26.76416 28.89193 26.76416 Z"/>
                </g>
                <g id="g1551">
                    <path id="circle1553" fill="#ffffff" fill-rule="evenodd" stroke="none" d="M 40.282692 28.016205 C 40.379341 29.292938 41.042023 30.189148 41.76284 30.01796 C 42.48365 29.846771 42.989639 28.673004 42.89299 27.396286 C 42.796341 26.119553 42.133659 25.223343 41.412842 25.394516 C 40.692032 25.565704 40.186043 26.739471 40.282692 28.016205 Z"/>
                    <path id="circle1555" fill="#506aa3" fill-rule="evenodd" stroke="none" d="M 40.424767 28.304993 C 40.506531 29.385086 41.067146 30.143265 41.676949 29.998444 C 42.286743 29.853622 42.714806 28.860641 42.633041 27.780548 C 42.551277 26.700455 41.990654 25.942261 41.380859 26.087082 C 40.771057 26.231903 40.343002 27.224899 40.424767 28.304993 Z"/>
                    <path id="path1557" fill="#3a4b74" fill-rule="evenodd" stroke="none" d="M 41.488457 26.18634 C 40.910629 26.30191 40.448372 27.226425 40.563942 28.266495 C 40.563942 29.30658 41.026199 28.03537 41.604019 27.9198 C 42.181839 27.804245 42.759666 28.844315 42.644096 27.804245 C 42.528534 26.76416 42.066277 26.07077 41.488457 26.18634 Z"/>
                    <path id="circle1559" fill="#000000" fill-rule="evenodd" stroke="none" d="M 40.977089 28.173584 C 41.017952 28.713379 41.298134 29.0923 41.60289 29.019928 C 41.907646 28.947556 42.121582 28.451279 42.080719 27.911484 C 42.039856 27.371689 41.759674 26.992767 41.454918 27.06514 C 41.150154 27.137527 40.936226 27.633789 40.977089 28.173584 Z"/>
                    <path id="circle1561" fill="#ffffff" fill-rule="evenodd" stroke="none" d="M 41.241318 26.928177 C 41.286407 27.523773 41.595551 27.941849 41.931808 27.862 C 42.268066 27.782135 42.504112 27.234573 42.459023 26.638977 C 42.41394 26.043381 42.104797 25.625305 41.768532 25.705154 C 41.432274 25.785019 41.196236 26.332581 41.241318 26.928177 Z"/>
                    <path id="circle1563" fill="#ffffff" fill-rule="evenodd" stroke="none" d="M 40.805542 29.073059 C 40.822311 29.294571 40.937279 29.450058 41.06234 29.420349 C 41.187393 29.390656 41.275177 29.187012 41.258408 28.965515 C 41.241638 28.744003 41.126671 28.588516 41.001617 28.618225 C 40.876556 28.647919 40.788773 28.851563 40.805542 29.073059 Z"/>
                    <path id="path1565" fill="#000000" fill-rule="evenodd" stroke="none" d="M 42.412971 25.839645 C 42.644096 26.30191 42.875229 26.87973 42.990791 27.688675 C 42.990791 28.382065 42.990791 28.959885 42.759666 29.42215 C 43.106361 28.844315 43.221924 28.15094 43.106361 27.34198 C 43.106361 26.64859 42.875229 26.18634 42.644096 25.724075 L 42.412971 25.839645 Z"/>
                    <path id="path1567" fill="#000000" fill-rule="evenodd" stroke="none" d="M 42.644096 25.724075 C 42.759666 25.955215 42.528534 25.955215 42.528534 26.18634 C 41.372894 25.261826 40.332809 25.955215 40.217247 28.497635 C 39.870552 25.724075 41.488457 24.106171 42.644096 25.724075 Z"/>
                    <path id="path1569" fill="#000000" fill-rule="evenodd" stroke="none" d="M 42.875229 26.76416 L 42.644096 25.724075 C 42.990791 25.955215 43.221924 25.49295 43.453049 24.799561 C 43.337486 25.955215 43.221924 26.76416 42.875229 26.76416 Z"/>
                </g>
                <g id="g1571">
                    <path id="ellipse1573" fill="#ff938e" fill-rule="evenodd" stroke="none" d="M 30.282394 30.792007 C 30.216187 31.285782 29.361946 31.57872 28.37439 31.44632 C 27.386841 31.313904 26.639938 30.806274 26.706146 30.3125 C 26.772354 29.81871 27.626595 29.525772 28.614143 29.658188 C 29.6017 29.790604 30.348602 30.298233 30.282394 30.792007 Z"/>
                    <path id="ellipse1575" fill="#ffffff" fill-rule="evenodd" stroke="none" d="M 28.260979 30.080368 C 28.270111 30.233459 28.029305 30.372375 27.723122 30.390656 C 27.416931 30.40892 27.161316 30.299622 27.152184 30.14653 C 27.143051 29.993439 27.383858 29.854523 27.690041 29.836258 C 27.996231 29.817978 28.251846 29.927277 28.260979 30.080368 Z"/>
                </g>
                <g id="g1577">
                    <path id="ellipse1579" fill="#ff938e" fill-rule="evenodd" stroke="none" d="M 43.804047 30.40712 C 43.828865 30.779922 43.379326 31.133942 42.79998 31.19783 C 42.220627 31.261703 41.730858 31.011261 41.706039 30.638443 C 41.681221 30.265625 42.13076 29.911621 42.710106 29.847733 C 43.289452 29.783859 43.779228 30.034302 43.804047 30.40712 Z"/>
                    <path id="ellipse1581" fill="#ffffff" fill-rule="evenodd" stroke="none" d="M 42.562813 30.214828 C 42.587402 30.325577 42.467819 30.466675 42.295708 30.529984 C 42.123596 30.593277 41.964142 30.55481 41.939552 30.444061 C 41.914955 30.333298 42.034546 30.1922 42.206657 30.128906 C 42.378761 30.065598 42.538223 30.104065 42.562813 30.214828 Z"/>
                </g>
                <g id="g1583">
                    <path id="path1585" fill="#ff9966" fill-rule="evenodd" stroke="none" d="M 28.77636 23.875046 C 30.625397 23.759491 32.474426 23.990616 34.323456 25.37738 C 33.630074 22.834976 30.856522 22.834976 28.77636 23.875046 Z"/>
                    <path id="path1587" fill="#ffbd9d" fill-rule="evenodd" stroke="none" d="M 28.77636 23.875046 C 29.007492 23.875046 29.238617 23.875046 29.469749 23.875046 C 31.203217 23.297226 33.167809 23.412796 33.976761 25.146255 C 34.092331 25.261826 34.207893 25.37738 34.323456 25.37738 C 33.630074 22.834976 30.856522 22.834976 28.77636 23.875046 Z"/>
                </g>
                <g id="g1589">
                    <path id="path1591" fill="#ff9966" fill-rule="evenodd" stroke="none" d="M 43.453049 23.875046 C 41.604019 23.759491 41.372894 23.990616 39.523857 25.37738 C 40.217247 22.834976 42.412971 22.834976 43.453049 23.875046 Z"/>
                    <path id="path1593" fill="#ffbd9d" fill-rule="evenodd" stroke="none" d="M 43.453049 23.875046 C 43.221924 23.875046 42.990791 23.875046 42.759666 23.875046 C 42.412971 23.297226 40.679504 23.412796 39.870552 25.146255 C 39.75499 25.261826 39.63942 25.37738 39.523857 25.37738 C 40.217247 22.834976 42.412971 22.834976 43.453049 23.875046 Z"/>
                </g>
                <path id="path1595" fill="#fff8e9" fill-rule="evenodd" stroke="none" d="M 38.830475 24.337311 C 38.714905 24.337311 38.599342 21.910446 39.177162 21.794891 C 39.63942 21.794891 40.332809 22.488281 40.332809 23.066101 C 39.63942 23.412796 39.292732 24.568436 38.830475 24.337311 Z"/>
                <path id="path1597" fill="#fff8e9" fill-rule="evenodd" stroke="none" d="M 34.901283 24.221741 C 34.901283 24.221741 35.132408 21.794891 34.439018 21.679321 C 34.092331 21.679321 33.398941 22.372711 33.398941 23.066101 C 34.092331 23.297226 34.439018 24.452866 34.901283 24.221741 Z"/>
                <path id="polygon1599" fill="#ffd26b" fill-rule="evenodd" stroke="none" d="M 36.865875 21.332626 L 42.990791 20.523682 L 42.990791 17.634567 L 24.96273 16.941177 L 24.731606 19.830292 Z"/>
                <path id="path1601" fill="#ff9966" fill-rule="evenodd" stroke="none" d="M 18.606689 24.915131 C 19.762329 23.875046 21.149109 23.759491 22.304749 24.106171 C 22.189186 25.37738 22.189186 32.311264 23.460396 35.547058 C 23.922653 30.577789 25.0783 23.875046 27.736282 18.327957 L 36.750313 19.830292 L 44.493134 17.518997 C 43.799744 10.931824 42.297409 8.273849 31.549911 8.504974 C 20.686852 8.851669 16.526527 13.127548 18.606689 24.915131 Z"/>
                <path id="path1603" fill="#ffbd9d" fill-rule="evenodd" stroke="none" d="M 23.344833 35.084808 C 23.344833 35.200363 23.460396 35.431503 23.460396 35.547058 C 23.691521 33.004639 24.153786 29.884399 24.847168 26.76416 C 24.038216 29.653275 23.575958 32.426819 23.344833 35.084808 Z M 44.030876 17.634567 L 44.493134 17.518997 C 43.799744 10.931824 42.297409 8.273849 31.549911 8.504974 C 23.691521 8.736099 19.300072 11.047394 18.375557 16.710052 C 19.877899 12.203033 24.038216 10.238434 31.087654 10.122879 C 41.141762 9.776184 43.221924 12.087479 44.030876 17.634567 Z"/>
                <path id="path1605" fill="#ff712b" fill-rule="evenodd" stroke="none" d="M 22.998138 19.483597 C 21.149109 20.176987 19.646767 21.448196 18.375557 23.643921 C 18.491119 23.990616 18.491119 24.452866 18.606689 24.915131 C 19.762329 23.875046 21.149109 23.759491 22.304749 24.106171 C 22.189186 25.37738 22.189186 32.311264 23.460396 35.547058 C 23.807091 31.155609 24.731606 25.49295 26.811768 20.408112 C 25.0783 22.950531 23.807091 25.839645 23.229263 29.075455 L 22.998138 19.483597 Z"/>
                <g id="g1607">
                    <path id="path1609" fill="#ff9966" fill-rule="evenodd" stroke="none" d="M 43.684181 13.243118 L 40.563942 18.327957 C 42.990791 21.332626 45.070953 24.799561 45.417648 28.03537 C 46.919983 23.643921 46.457726 18.443512 43.684181 13.243118 Z"/>
                    <path id="path1611" fill="#ffbd9d" fill-rule="evenodd" stroke="none" d="M 40.679504 18.096832 L 40.563942 18.327957 C 41.372894 19.252472 42.066277 20.292557 42.759666 21.332626 C 43.915306 20.754807 45.070953 20.176987 45.879906 19.368042 C 45.764343 18.559082 45.533211 17.634567 45.186516 16.710052 C 44.030876 17.287872 42.528534 17.750137 40.679504 18.096832 Z"/>
                    <path id="path1613" fill="#ff712b" fill-rule="evenodd" stroke="none" d="M 41.026199 17.634567 L 40.563942 18.327957 C 42.990791 21.332626 45.070953 24.799561 45.417648 28.03537 C 45.995468 26.417465 46.226601 24.799561 46.226601 22.950531 L 45.533211 24.106171 C 44.262001 21.217072 42.759666 19.252472 41.026199 17.634567 Z"/>
                    <path id="path1615" fill="#ffbd9d" fill-rule="evenodd" stroke="none" d="M 43.106361 14.167633 C 43.453049 14.745453 44.030876 16.016663 44.262001 16.594482 C 44.608696 17.172302 44.839828 17.750137 45.070953 18.443512 C 45.648773 19.599167 45.995468 20.985931 46.226601 22.372711 C 46.111038 19.483597 45.302086 16.247787 43.684181 13.243118 C 43.684181 13.127548 43.221924 13.936508 43.106361 14.167633 Z"/>
                </g>
                <g id="g1617">
                    <path id="path1619" fill="#ff9966" fill-rule="evenodd" stroke="none" d="M 26.580635 16.132233 L 41.141762 15.901093 C 41.026199 20.292557 37.443695 24.799561 33.052246 26.30191 C 34.323456 24.915131 35.363541 22.950531 35.247971 20.639236 C 33.745636 22.603836 26.23394 27.804245 21.495796 28.844315 C 22.998138 27.110855 24.847168 23.875046 26.002815 21.910446 C 24.038216 23.297226 19.646767 24.915131 16.873222 24.221741 C 21.149109 23.412796 24.038216 20.061417 26.580635 16.132233 Z"/>
                    <path id="path1621" fill="#ffbd9d" fill-rule="evenodd" stroke="none" d="M 40.910629 18.096832 C 40.448372 19.714722 39.523857 21.217072 38.368217 22.603836 C 37.328133 22.719406 36.172485 22.950531 35.016846 22.950531 C 35.247971 22.257141 35.363541 21.448196 35.247971 20.639236 C 34.785713 21.217072 33.861198 22.026016 32.589989 23.066101 C 30.163139 22.950531 27.851845 22.603836 25.887253 22.026016 L 26.002815 21.910446 L 25.887253 21.910446 C 24.847168 21.679321 23.807091 21.217072 22.998138 20.754807 C 23.807091 19.945862 24.500473 19.021347 25.309425 17.981262 C 27.62072 18.559082 30.394264 18.905777 33.398941 18.905777 C 36.056923 18.905777 38.714905 18.559082 40.910629 18.096832 Z"/>
                    <path id="path1623" fill="#ff712b" fill-rule="evenodd" stroke="none" d="M 41.141762 15.901093 C 41.026199 20.292557 37.443695 24.799561 33.052246 26.30191 C 37.21257 24.106171 39.63942 20.408112 41.141762 15.901093 Z"/>
                    <path id="path1625" fill="#ff712b" fill-rule="evenodd" stroke="none" d="M 22.767006 23.528351 C 24.038216 23.066101 25.193863 22.372711 26.002815 21.910446 L 26.465073 21.217072 L 27.274025 20.292557 L 27.389587 20.176987 L 28.314102 18.905777 C 27.967407 19.368042 27.50515 19.714722 27.158463 20.061417 C 27.042892 20.176987 26.92733 20.292557 26.811768 20.408112 C 25.771683 21.332626 24.616043 22.141586 23.344833 22.719406 C 23.113701 22.834976 22.998138 22.834976 22.767006 22.950531 C 22.189186 23.181656 21.495796 23.412796 20.802414 23.643921 C 20.455719 23.759491 20.109024 23.875046 19.762329 23.875046 C 18.837814 24.106171 17.9133 24.221741 16.873222 24.221741 C 17.566605 24.452866 18.259995 24.452866 18.953384 24.337311 C 19.646767 24.337311 20.224586 24.221741 20.802414 24.106171 C 20.917976 24.106171 20.917976 24.106171 21.033539 23.990616 C 21.264671 23.990616 21.611366 23.875046 21.842491 23.875046 C 22.189186 23.759491 22.535881 23.643921 22.767006 23.528351 Z"/>
                    <path id="path1627" fill="#ff712b" fill-rule="evenodd" stroke="none" d="M 32.821121 20.754807 C 32.127731 21.679321 31.318779 22.488281 30.394264 23.297226 C 30.278702 23.412796 30.047569 23.643921 29.932007 23.759491 C 29.932007 23.759491 29.816444 23.759491 29.816444 23.875046 C 29.238617 24.337311 28.660797 24.799561 28.082977 25.146255 C 27.967407 25.261826 27.967407 25.261826 27.851845 25.261826 C 27.158463 25.724075 26.465073 26.18634 25.771683 26.64859 C 25.424995 26.87973 25.0783 26.995285 24.731606 27.226425 C 24.153786 27.57312 23.460396 27.9198 22.767006 28.15094 C 22.767006 28.15094 22.767006 28.266495 22.651443 28.266495 C 22.651443 28.266495 22.651443 28.266495 22.651443 28.266495 C 22.535881 28.266495 22.420319 28.382065 22.304749 28.382065 C 22.073624 28.497635 21.726929 28.61319 21.495796 28.844315 C 21.726929 28.72876 22.073624 28.61319 22.304749 28.61319 C 22.420319 28.497635 22.535881 28.497635 22.651443 28.497635 C 22.651443 28.497635 22.651443 28.497635 22.651443 28.497635 C 22.767006 28.497635 22.767006 28.497635 22.882576 28.382065 C 23.460396 28.266495 24.038216 28.03537 24.616043 27.804245 C 25.771683 27.226425 26.92733 26.64859 28.082977 25.955215 C 28.19854 25.955215 28.429665 25.839645 28.545235 25.724075 C 29.585312 25.146255 30.394264 24.568436 31.203217 23.990616 C 31.434341 23.875046 31.665474 23.759491 31.781036 23.643921 C 31.896606 23.528351 32.127731 23.412796 32.243294 23.297226 C 33.398941 22.488281 34.323456 21.679321 34.901283 21.101501 C 35.016846 20.870377 35.132408 20.754807 35.247971 20.639236 L 35.247971 19.830292 L 35.247971 19.599167 L 35.132408 17.403442 L 35.132408 17.172302 C 35.132408 17.172302 35.016846 17.287872 35.016846 17.403442 C 34.670151 18.096832 34.323456 18.674652 33.861198 19.368042 C 33.514503 19.830292 33.167809 20.292557 32.821121 20.754807 Z"/>
                </g>
                <g id="g1629">
                    <path id="path1631" fill="#ffd26b" fill-rule="evenodd" stroke="none" d="M 34.901283 29.884399 C 34.785713 33.698029 38.599342 37.511658 38.714905 29.999969 C 37.905952 30.115524 34.901283 29.884399 34.901283 29.884399 Z"/>
                    <path id="path1633" fill="#000000" fill-rule="evenodd" stroke="none" d="M 34.901283 29.884399 C 34.785713 33.351334 38.599342 37.049408 38.714905 29.999969 C 38.021523 30.115524 34.901283 29.884399 34.901283 29.884399 Z"/>
                    <path id="path1635" fill="#ff6699" fill-rule="evenodd" stroke="none" d="M 35.016846 31.386734 C 35.710228 33.698029 37.79039 35.431503 38.48378 32.311264 C 37.674828 31.386734 36.403618 31.155609 35.016846 31.386734 Z"/>
                    <path id="path1637" fill="#ff9dbd" fill-rule="evenodd" stroke="none" d="M 35.016846 31.386734 C 35.132408 31.386734 35.132408 31.502304 35.132408 31.617874 C 36.403618 31.386734 37.559265 31.733429 38.48378 32.426819 L 38.48378 32.311264 C 37.674828 31.386734 36.403618 31.155609 35.016846 31.386734 Z"/>
                    <path id="ellipse1639" fill="#ff9dbd" fill-rule="evenodd" stroke="none" d="M 37.792953 32.218567 C 37.727501 32.509369 37.20298 32.638977 36.621399 32.508072 C 36.039825 32.377167 35.621422 32.035324 35.686874 31.744522 C 35.752319 31.453735 36.27684 31.324127 36.858421 31.455032 C 37.440002 31.585938 37.858398 31.92778 37.792953 32.218567 Z"/>
                </g>
            </g>
            <path id="polygon1641" fill="#007a9c" fill-rule="evenodd" stroke="none" d="M 13.637413 14.398758 L 23.807091 16.594482 L 26.465073 14.629898 L 17.104347 12.896423 L 21.611366 3.76683 L 19.184509 3.304565 Z"/>
            <g id="g1643">
                <path id="path1645" fill="#ff9966" fill-rule="evenodd" stroke="none" d="M 24.731606 13.011993 C 32.012169 2.842316 4.738953 0.877716 1.387581 30.808914 L 4.970078 26.533035 L 3.81443 29.768845 C 11.557251 26.18634 20.109024 20.754807 24.731606 13.011993 Z"/>
                <path id="path1647" fill="#ffbd9d" fill-rule="evenodd" stroke="none" d="M 25.887253 10.238434 C 26.811768 2.842316 4.392258 3.882401 1.387581 30.808914 L 1.849838 30.231094 C 5.547897 7.46489 23.691521 4.92247 25.887253 10.238434 Z"/>
                <path id="path1649" fill="#ff712b" fill-rule="evenodd" stroke="none" d="M 18.375557 16.941177 C 13.637413 20.985931 7.859192 24.106171 2.774353 26.30191 C 3.005486 24.337311 3.23661 22.488281 3.698868 20.870377 C 2.658791 23.643921 1.734276 26.995285 1.387581 30.808914 L 4.970078 26.533035 L 3.81443 29.768845 C 8.783707 27.45755 14.21524 24.337311 18.606689 20.292557 C 19.415642 19.483597 20.340157 18.674652 21.149109 17.865692 C 21.842491 17.056747 22.420319 16.247787 23.113701 15.438843 C 23.691521 14.629898 24.269348 13.820938 24.731606 13.011993 C 25.309425 12.087479 25.771683 11.278519 25.887253 10.585129 C 26.002815 9.660614 25.887253 8.967224 25.540558 8.273849 C 25.540558 8.273849 25.424995 8.158279 25.424995 8.158279 C 25.424995 8.158279 25.424995 8.273849 25.309425 8.389404 C 25.193863 8.736099 24.96273 9.198364 24.616043 9.545059 C 24.384911 9.891754 24.153786 10.238434 23.922653 10.585129 C 23.691521 10.931824 23.460396 11.394089 23.113701 11.740784 C 22.535881 12.665298 21.842491 13.474243 21.149109 14.283203 C 20.224586 15.207718 19.300072 16.016663 18.375557 16.941177 Z"/>
                <path id="path1651" fill="#ffbd9d" fill-rule="evenodd" stroke="none" d="M 21.380234 8.273849 C 21.842491 9.313919 20.571281 10.816269 18.491119 11.509644 C 16.526527 12.203033 14.561928 11.971909 14.21524 10.816269 C 13.868546 9.776184 15.139755 8.273849 17.104347 7.58046 C 19.068947 6.7715 21.033539 7.118195 21.380234 8.273849 Z"/>
            </g>
            <path id="path1653" fill="#00ccff" fill-rule="evenodd" stroke="none" d="M 26.465073 14.629898 L 23.807091 16.594482 L 19.184509 3.304565 C 19.993462 3.535706 20.802414 3.65126 21.611366 3.76683 L 26.465073 14.629898 Z"/>
            <path id="polygon1655" fill="#00e8fe" fill-rule="evenodd" stroke="none" d="M 19.184509 3.304565 L 19.762329 3.420135 L 24.269348 16.247787 L 23.807091 16.594482 Z"/>
        </g>
        <g id="g1657">
            <path id="circle1659" fill="#333333" fill-rule="evenodd" stroke="none" d="M 53.507156 53.575119 C 53.507156 57.021637 50.713196 59.815598 47.266678 59.815598 C 43.82016 59.815598 41.026199 57.021637 41.026199 53.575119 C 41.026199 50.128601 43.82016 47.334641 47.266678 47.334641 C 50.713196 47.334641 53.507156 50.128601 53.507156 53.575119 Z"/>
            <path id="circle1661" fill="#1a1a1a" fill-rule="evenodd" stroke="none" d="M 51.773697 53.575119 C 51.773697 56.064285 49.755829 58.082138 47.266678 58.082138 C 44.777527 58.082138 42.759666 56.064285 42.759666 53.575119 C 42.759666 51.085968 44.777527 49.0681 47.266678 49.0681 C 49.755829 49.0681 51.773697 51.085968 51.773697 53.575119 Z"/>
            <path id="circle1663" fill="#ff9933" fill-rule="evenodd" stroke="none" d="M 50.964737 53.575119 C 50.964737 55.617508 49.309067 57.273178 47.266678 57.273178 C 45.224297 57.273178 43.568619 55.617508 43.568619 53.575119 C 43.568619 51.532745 45.224297 49.87706 47.266678 49.87706 C 49.309067 49.87706 50.964737 51.532745 50.964737 53.575119 Z"/>
            <path id="circle1665" fill="#ffcc00" fill-rule="evenodd" stroke="none" d="M 50.271362 53.575119 C 50.271362 55.234558 48.926117 56.579803 47.266678 56.579803 C 45.607246 56.579803 44.262001 55.234558 44.262001 53.575119 C 44.262001 51.915695 45.607246 50.57045 47.266678 50.57045 C 48.926117 50.57045 50.271362 51.915695 50.271362 53.575119 Z"/>
            <path id="circle1667" fill="#ffff00" fill-rule="evenodd" stroke="none" d="M 49.462402 53.575119 C 49.462402 54.787781 48.47934 55.770844 47.266678 55.770844 C 46.054016 55.770844 45.070953 54.787781 45.070953 53.575119 C 45.070953 52.362457 46.054016 51.379395 47.266678 51.379395 C 48.47934 51.379395 49.462402 52.362457 49.462402 53.575119 Z"/>
            <path id="circle1669" fill="#ffffff" fill-rule="evenodd" stroke="none" d="M 47.728935 52.419479 C 47.728935 52.866241 47.366753 53.228424 46.919983 53.228424 C 46.473221 53.228424 46.111038 52.866241 46.111038 52.419479 C 46.111038 51.972702 46.473221 51.610519 46.919983 51.610519 C 47.366753 51.610519 47.728935 51.972702 47.728935 52.419479 Z"/>
            <path id="circle1671" fill="#ffffff" fill-rule="evenodd" stroke="none" d="M 46.226601 53.459564 C 46.226601 53.714859 46.019638 53.921814 45.764343 53.921814 C 45.509048 53.921814 45.302086 53.714859 45.302086 53.459564 C 45.302086 53.204254 45.509048 52.997299 45.764343 52.997299 C 46.019638 52.997299 46.226601 53.204254 46.226601 53.459564 Z"/>
            <path id="circle1673" fill="#ffffff" fill-rule="evenodd" stroke="none" d="M 48.537888 54.846329 C 48.537888 55.101639 48.330917 55.308594 48.075638 55.308594 C 47.820335 55.308594 47.613373 55.101639 47.613373 54.846329 C 47.613373 54.591034 47.820335 54.384079 48.075638 54.384079 C 48.330917 54.384079 48.537888 54.591034 48.537888 54.846329 Z"/>
            <g id="g1675">
                <path id="path1677" fill="none" stroke="#ff9933" stroke-width="0.287994" stroke-linecap="round" stroke-linejoin="round" d="M 47.266678 50.223755 C 47.49781 50.223755 47.613373 50.33931 47.613373 50.57045 C 47.613373 50.801575 47.49781 50.917145 47.266678 50.917145 C 47.035553 50.917145 46.919983 50.801575 46.919983 50.57045 C 46.919983 50.33931 47.035553 50.223755 47.266678 50.223755 Z"/>
                <path id="path1679" fill="#000000" fill-rule="evenodd" stroke="none" d="M 47.266678 50.223755 C 47.49781 50.223755 47.613373 50.33931 47.613373 50.57045 C 47.613373 50.801575 47.49781 50.917145 47.266678 50.917145 C 47.035553 50.917145 46.919983 50.801575 46.919983 50.57045 C 46.919983 50.33931 47.035553 50.223755 47.266678 50.223755 Z"/>
            </g>
            <g id="g1681">
                <path id="path1683" fill="none" stroke="#ff9933" stroke-width="0.287994" stroke-linecap="round" stroke-linejoin="round" d="M 50.271362 53.228424 C 50.502487 53.228424 50.618042 53.343994 50.618042 53.575119 C 50.618042 53.690689 50.502487 53.921814 50.271362 53.921814 C 50.040222 53.921814 49.924667 53.690689 49.924667 53.575119 C 49.924667 53.343994 50.040222 53.228424 50.271362 53.228424 Z"/>
                <path id="path1685" fill="#000000" fill-rule="evenodd" stroke="none" d="M 50.271362 53.228424 C 50.502487 53.228424 50.618042 53.343994 50.618042 53.575119 C 50.618042 53.690689 50.502487 53.921814 50.271362 53.921814 C 50.040222 53.921814 49.924667 53.690689 49.924667 53.575119 C 49.924667 53.343994 50.040222 53.228424 50.271362 53.228424 Z"/>
            </g>
            <g id="g1687">
                <path id="path1689" fill="none" stroke="#ff9933" stroke-width="0.287994" stroke-linecap="round" stroke-linejoin="round" d="M 44.262001 53.228424 C 44.493134 53.228424 44.724258 53.343994 44.724258 53.575119 C 44.724258 53.690689 44.493134 53.921814 44.262001 53.921814 C 44.146439 53.921814 43.915306 53.690689 43.915306 53.575119 C 43.915306 53.343994 44.146439 53.228424 44.262001 53.228424 Z"/>
                <path id="path1691" fill="#000000" fill-rule="evenodd" stroke="none" d="M 44.262001 53.228424 C 44.493134 53.228424 44.724258 53.343994 44.724258 53.575119 C 44.724258 53.690689 44.493134 53.921814 44.262001 53.921814 C 44.146439 53.921814 43.915306 53.690689 43.915306 53.575119 C 43.915306 53.343994 44.146439 53.228424 44.262001 53.228424 Z"/>
            </g>
            <g id="g1693">
                <path id="path1695" fill="none" stroke="#ff9933" stroke-width="0.287994" stroke-linecap="round" stroke-linejoin="round" d="M 47.266678 56.117538 C 47.49781 56.117538 47.613373 56.348663 47.613373 56.464233 C 47.613373 56.695358 47.49781 56.926498 47.266678 56.926498 C 47.035553 56.926498 46.919983 56.695358 46.919983 56.464233 C 46.919983 56.348663 47.035553 56.117538 47.266678 56.117538 Z"/>
                <path id="path1697" fill="#000000" fill-rule="evenodd" stroke="none" d="M 47.266678 56.117538 C 47.49781 56.117538 47.613373 56.348663 47.613373 56.464233 C 47.613373 56.695358 47.49781 56.926498 47.266678 56.926498 C 47.035553 56.926498 46.919983 56.695358 46.919983 56.464233 C 46.919983 56.348663 47.035553 56.117538 47.266678 56.117538 Z"/>
            </g>
        </g>
        <g id="g1699">
            <path id="circle1701" fill="#333333" fill-rule="evenodd" stroke="none" d="M 23.460396 53.575119 C 23.460396 57.021637 20.666435 59.815598 17.21991 59.815598 C 13.773392 59.815598 10.979431 57.021637 10.979431 53.575119 C 10.979431 50.128601 13.773392 47.334641 17.21991 47.334641 C 20.666435 47.334641 23.460396 50.128601 23.460396 53.575119 Z"/>
            <path id="circle1703" fill="#1a1a1a" fill-rule="evenodd" stroke="none" d="M 21.726929 53.575119 C 21.726929 56.064285 19.709068 58.082138 17.21991 58.082138 C 14.730759 58.082138 12.712898 56.064285 12.712898 53.575119 C 12.712898 51.085968 14.730759 49.0681 17.21991 49.0681 C 19.709068 49.0681 21.726929 51.085968 21.726929 53.575119 Z"/>
            <path id="circle1705" fill="#ff9933" fill-rule="evenodd" stroke="none" d="M 20.917976 53.575119 C 20.917976 55.617508 19.262299 57.273178 17.21991 57.273178 C 15.177528 57.273178 13.521851 55.617508 13.521851 53.575119 C 13.521851 51.532745 15.177528 49.87706 17.21991 49.87706 C 19.262299 49.87706 20.917976 51.532745 20.917976 53.575119 Z"/>
            <path id="circle1707" fill="#ffcc00" fill-rule="evenodd" stroke="none" d="M 20.224586 53.575119 C 20.224586 55.234558 18.879349 56.579803 17.21991 56.579803 C 15.560478 56.579803 14.21524 55.234558 14.21524 53.575119 C 14.21524 51.915695 15.560478 50.57045 17.21991 50.57045 C 18.879349 50.57045 20.224586 51.915695 20.224586 53.575119 Z"/>
            <path id="circle1709" fill="#ffff00" fill-rule="evenodd" stroke="none" d="M 19.415642 53.575119 C 19.415642 54.787781 18.432579 55.770844 17.21991 55.770844 C 16.007248 55.770844 15.024185 54.787781 15.024185 53.575119 C 15.024185 52.362457 16.007248 51.379395 17.21991 51.379395 C 18.432579 51.379395 19.415642 52.362457 19.415642 53.575119 Z"/>
            <path id="circle1711" fill="#ffffff" fill-rule="evenodd" stroke="none" d="M 17.566605 52.419479 C 17.566605 52.866241 17.204422 53.228424 16.757652 53.228424 C 16.31089 53.228424 15.948708 52.866241 15.948708 52.419479 C 15.948708 51.972702 16.31089 51.610519 16.757652 51.610519 C 17.204422 51.610519 17.566605 51.972702 17.566605 52.419479 Z"/>
            <path id="circle1713" fill="#ffffff" fill-rule="evenodd" stroke="none" d="M 16.06427 53.459564 C 16.06427 53.714859 15.857315 53.921814 15.602013 53.921814 C 15.34671 53.921814 15.139755 53.714859 15.139755 53.459564 C 15.139755 53.204254 15.34671 52.997299 15.602013 52.997299 C 15.857315 52.997299 16.06427 53.204254 16.06427 53.459564 Z"/>
            <path id="circle1715" fill="#ffffff" fill-rule="evenodd" stroke="none" d="M 18.491119 54.846329 C 18.491119 55.101639 18.284164 55.308594 18.028862 55.308594 C 17.773567 55.308594 17.566605 55.101639 17.566605 54.846329 C 17.566605 54.591034 17.773567 54.384079 18.028862 54.384079 C 18.284164 54.384079 18.491119 54.591034 18.491119 54.846329 Z"/>
            <g id="g1717">
                <path id="path1719" fill="none" stroke="#ff9933" stroke-width="0.287994" stroke-linecap="round" stroke-linejoin="round" d="M 17.21991 50.223755 C 17.33548 50.223755 17.566605 50.33931 17.566605 50.57045 C 17.566605 50.801575 17.33548 50.917145 17.21991 50.917145 C 16.988785 50.917145 16.757652 50.801575 16.757652 50.57045 C 16.757652 50.33931 16.988785 50.223755 17.21991 50.223755 Z"/>
                <path id="path1721" fill="#000000" fill-rule="evenodd" stroke="none" d="M 17.21991 50.223755 C 17.33548 50.223755 17.566605 50.33931 17.566605 50.57045 C 17.566605 50.801575 17.33548 50.917145 17.21991 50.917145 C 16.988785 50.917145 16.757652 50.801575 16.757652 50.57045 C 16.757652 50.33931 16.988785 50.223755 17.21991 50.223755 Z"/>
            </g>
            <g id="g1723">
                <path id="path1725" fill="none" stroke="#ff9933" stroke-width="0.287994" stroke-linecap="round" stroke-linejoin="round" d="M 20.109024 53.228424 C 20.340157 53.228424 20.571281 53.343994 20.571281 53.575119 C 20.571281 53.690689 20.340157 53.921814 20.109024 53.921814 C 19.993462 53.921814 19.762329 53.690689 19.762329 53.575119 C 19.762329 53.343994 19.993462 53.228424 20.109024 53.228424 Z"/>
                <path id="path1727" fill="#000000" fill-rule="evenodd" stroke="none" d="M 20.109024 53.228424 C 20.340157 53.228424 20.571281 53.343994 20.571281 53.575119 C 20.571281 53.690689 20.340157 53.921814 20.109024 53.921814 C 19.993462 53.921814 19.762329 53.690689 19.762329 53.575119 C 19.762329 53.343994 19.993462 53.228424 20.109024 53.228424 Z"/>
            </g>
            <g id="g1729">
                <path id="path1731" fill="none" stroke="#ff9933" stroke-width="0.287994" stroke-linecap="round" stroke-linejoin="round" d="M 14.21524 53.228424 C 14.446365 53.228424 14.561928 53.343994 14.561928 53.575119 C 14.561928 53.690689 14.446365 53.921814 14.21524 53.921814 C 13.984108 53.921814 13.868546 53.690689 13.868546 53.575119 C 13.868546 53.343994 13.984108 53.228424 14.21524 53.228424 Z"/>
                <path id="path1733" fill="#000000" fill-rule="evenodd" stroke="none" d="M 14.21524 53.228424 C 14.446365 53.228424 14.561928 53.343994 14.561928 53.575119 C 14.561928 53.690689 14.446365 53.921814 14.21524 53.921814 C 13.984108 53.921814 13.868546 53.690689 13.868546 53.575119 C 13.868546 53.343994 13.984108 53.228424 14.21524 53.228424 Z"/>
            </g>
            <g id="g1735">
                <path id="path1737" fill="none" stroke="#ff9933" stroke-width="0.287994" stroke-linecap="round" stroke-linejoin="round" d="M 17.21991 56.117538 C 17.33548 56.117538 17.566605 56.348663 17.566605 56.464233 C 17.566605 56.695358 17.33548 56.926498 17.21991 56.926498 C 16.988785 56.926498 16.757652 56.695358 16.757652 56.464233 C 16.757652 56.348663 16.988785 56.117538 17.21991 56.117538 Z"/>
                <path id="path1739" fill="#000000" fill-rule="evenodd" stroke="none" d="M 17.21991 56.117538 C 17.33548 56.117538 17.566605 56.348663 17.566605 56.464233 C 17.566605 56.695358 17.33548 56.926498 17.21991 56.926498 C 16.988785 56.926498 16.757652 56.695358 16.757652 56.464233 C 16.757652 56.348663 16.988785 56.117538 17.21991 56.117538 Z"/>
            </g>
        </g>
    </g>
</svg>
