<svg width="103" height="103" viewBox="0 0 103 103" xmlns="http://www.w3.org/2000/svg">
    <g id="a99c4d72-8156-4d5c-8cd2-bfc12e229b26-copy">
        <path id="Path" fill="#e8185e" stroke="none" d="M 76.912598 9.410675 C 68.325928 9.410675 61.349258 16.387344 61.349258 24.973999 C 61.349258 33.560669 68.325928 40.537338 76.912598 40.537338 C 81.635254 40.537338 85.821259 38.498001 88.611923 35.17067 C 90.973251 32.487335 92.368591 28.945328 92.368591 25.081329 C 92.475922 16.279999 85.499252 9.410675 76.912598 9.410675 Z M 82.06459 33.131332 L 77.985931 33.131332 L 77.985931 25.832672 L 83.889252 25.832672 C 83.674591 28.301331 83.137924 30.877335 82.06459 33.131332 Z M 70.579926 25.832672 L 76.053925 25.832672 L 76.053925 33.131332 L 72.404602 33.131332 C 71.331268 30.877335 70.687256 28.408661 70.579926 25.832672 Z M 76.053925 17.246002 L 76.053925 24.008011 L 70.579926 24.008011 C 70.687256 21.753998 71.223923 19.39267 72.082596 17.246002 L 76.053925 17.246002 Z M 77.878601 23.900665 L 77.878601 17.138672 L 82.279266 17.138672 C 83.137924 19.285339 83.674591 21.539337 83.781921 23.900665 L 77.878601 23.900665 Z M 77.878601 11.342667 L 78.415268 11.342667 C 79.595932 12.523331 80.56192 13.918671 81.313263 15.314011 L 77.878601 15.314011 L 77.878601 11.342667 Z M 76.053925 15.314011 L 73.048599 15.314011 C 73.799927 13.918671 74.87326 12.523331 76.053925 11.342667 L 76.053925 15.314011 Z M 65.642593 17.246002 L 70.043259 17.246002 C 69.184601 19.39267 68.755264 21.646667 68.647934 24.008011 L 63.281265 24.008011 C 63.495926 21.432007 64.354599 19.178009 65.642593 17.246002 Z M 63.388596 25.832672 L 68.755264 25.832672 C 68.862595 28.301331 69.399261 30.770004 70.365265 33.131332 L 66.17926 33.131332 C 64.56926 31.091995 63.495926 28.623337 63.388596 25.832672 Z M 76.053925 38.390671 C 75.087936 37.317337 74.229263 36.244003 73.477936 35.063339 L 76.053925 35.063339 L 76.053925 38.390671 Z M 77.878601 38.498001 L 77.878601 35.063339 L 80.991257 35.063339 C 80.239929 36.244003 79.381256 37.424667 78.307922 38.498001 L 77.878601 38.498001 Z M 87.75325 33.131332 L 84.103928 33.131332 C 85.069931 30.770004 85.606598 28.301331 85.713928 25.832672 L 90.543915 25.832672 C 90.329254 28.623337 89.363251 31.091995 87.75325 33.131332 Z M 90.543915 23.900665 L 85.713928 23.900665 C 85.606598 21.646667 85.177261 19.39267 84.318588 17.138672 L 88.182587 17.138672 C 89.577927 19.178009 90.329254 21.432007 90.543915 23.900665 Z M 51.367264 45.152664 C 50.40126 40.430008 47.610596 32.165329 40.311935 29.804001 C 40.526596 29.052673 40.633926 28.08667 40.633926 27.013336 L 40.633926 25.510666 L 21.528595 25.510666 C 21.206604 25.510666 12.834595 25.188675 7.897263 29.911331 C 5.428596 32.272675 4.247932 35.278 4.247932 39.141998 L 4.355263 44.186661 C 1.779266 44.938004 -0.045403 47.299332 -0.045403 49.982666 C -0.045403 52.55867 1.671928 54.919998 4.247932 55.778664 L 4.247932 56.422668 C 4.247932 64.150665 8.541267 70.912666 14.981262 74.562004 L 14.766594 79.606667 C 7.897263 80.036003 4.355263 82.826668 3.174599 84.007332 C 1.027931 86.046661 -0.045403 88.837334 -0.045403 92.057327 L -0.045403 103.542 L 2.8526 103.542 L 2.8526 92.057327 C 2.8526 89.588669 3.603928 87.656662 5.213928 86.046661 C 8.755928 82.612 15.088593 82.504662 16.054596 82.504662 L 16.161926 82.504662 C 16.483932 82.504662 16.913269 82.397331 17.12793 82.075333 C 17.449936 81.860664 17.557266 81.431328 17.557266 81.001999 L 17.771927 75.849998 C 20.347931 76.923332 23.245926 77.459999 26.251266 77.459999 C 29.256592 77.459999 32.154602 76.923332 34.730591 75.849998 L 34.945267 81.001999 C 34.945267 81.753334 35.589264 82.397331 36.447922 82.397331 C 37.091934 82.397331 43.1026 82.504662 46.537262 85.832001 C 48.147263 87.334663 48.89859 89.481331 48.89859 92.057327 L 48.89859 103.542 L 51.7966 103.542 L 51.7966 92.057327 C 51.7966 88.729996 50.723267 85.939331 48.469269 83.792664 C 45.141937 80.57267 40.311935 79.821327 37.735931 79.606667 L 37.521255 74.454666 C 43.853928 70.697998 48.147263 64.043335 48.147263 56.315331 L 48.147263 48.909332 L 52.011261 48.909332 L 51.367264 45.152664 Z M 45.356598 56.422668 C 45.356598 66.512001 36.769928 74.669334 26.251266 74.669334 C 15.73259 74.669334 7.145927 66.512001 7.145927 56.422668 L 7.145927 53.309998 L 5.750595 53.202667 C 4.140594 52.987999 2.8526 51.592667 2.8526 49.982666 C 2.8526 48.265335 4.140594 46.869995 5.857933 46.869995 L 7.145927 46.762665 L 7.145927 39.141998 C 7.145927 36.244003 8.111931 33.77533 9.9366 32.057999 C 13.4786 28.730667 19.381927 28.408661 21.099258 28.408661 L 37.735931 28.408661 C 37.628601 29.267334 37.413925 29.481995 37.413925 29.481995 L 34.193924 31.628662 L 37.950592 32.165329 C 45.034592 33.238663 47.717926 41.395996 48.683929 46.011337 L 45.463928 46.011337 C 45.249268 46.118668 45.356598 56.315331 45.356598 56.422668 Z"/>
        <path id="path1" fill="#e8185e" stroke="none" d="M 25.82193 64.79467 C 22.816589 64.79467 20.13327 63.077332 20.13327 61.038002 C 20.13327 60.393997 19.596603 59.85733 18.952591 59.85733 C 18.308594 59.85733 17.771927 60.393997 17.771927 61.038002 C 17.771927 64.365334 21.421265 67.155998 25.82193 67.155998 C 26.465927 67.155998 27.002594 66.619331 27.002594 65.975334 C 27.109924 65.331337 26.573257 64.79467 25.82193 64.79467 Z M 20.347931 52.55867 C 20.347931 53.202667 20.884598 53.739334 21.528595 53.739334 C 22.172592 53.739334 22.709259 53.202667 22.709259 52.55867 C 22.709259 50.519333 20.669937 48.909332 18.093933 48.909332 C 15.517929 48.909332 13.4786 50.519333 13.4786 52.55867 C 13.4786 53.202667 14.015266 53.739334 14.659264 53.739334 C 15.303268 53.739334 15.839935 53.202667 15.839935 52.55867 C 15.839935 51.914665 16.805923 51.270668 18.093933 51.270668 C 19.381927 51.270668 20.347931 51.914665 20.347931 52.55867 Z M 32.691269 48.909332 C 30.115265 48.909332 28.075928 50.519333 28.075928 52.55867 C 28.075928 53.202667 28.612595 53.739334 29.256592 53.739334 C 29.900604 53.739334 30.437256 53.202667 30.437256 52.55867 C 30.437256 51.914665 31.403259 51.270668 32.691269 51.270668 C 33.979263 51.270668 34.945267 51.914665 34.945267 52.55867 C 34.945267 53.202667 35.481934 53.739334 36.125931 53.739334 C 36.769928 53.739334 37.306595 53.202667 37.306595 52.55867 C 37.306595 50.519333 35.267258 48.909332 32.691269 48.909332 Z M 99.130585 38.390671 C 102.565262 32.487335 103.531265 25.617996 101.813919 18.963333 C 99.989258 12.416 95.803253 6.834671 89.899918 3.400009 C 85.928589 1.038666 81.527924 -0.141998 77.019928 -0.141998 C 74.76593 -0.141998 72.619263 0.180008 70.472595 0.716675 C 63.817932 2.434006 58.343933 6.62001 54.909256 12.630676 C 51.474594 18.533997 50.508591 25.403336 52.225922 32.057999 C 53.728592 37.746674 57.163254 42.684006 61.885925 46.225998 L 62.100601 46.333328 L 54.372589 57.925331 L 83.45993 50.304665 C 90.114594 48.587334 95.588593 44.294006 99.130585 38.390671 Z M 82.708588 47.621338 L 60.705261 53.417336 L 65.857254 45.582001 L 64.67659 44.830673 C 59.846588 41.718002 56.304596 36.995331 54.909256 31.414001 C 53.406586 25.510666 54.157928 19.39267 57.270599 14.133331 C 60.383255 8.874008 65.320587 5.11734 71.223923 3.61467 C 77.019928 2.112 83.3526 2.970673 88.504593 5.975998 C 93.763916 9.088669 97.520584 14.026001 99.130585 19.929337 C 100.633255 25.832672 99.881927 31.950668 96.769257 37.210007 C 93.549255 42.254669 88.611923 46.011337 82.708588 47.621338 Z"/>
    </g>
</svg>
